<?xml version="1.0" standalone="no"?>
<!DOCTYPE svg PUBLIC "-//W3C//DTD SVG 1.1//EN" "http://www.w3.org/Graphics/SVG/1.1/DTD/svg11.dtd" >
<!--
2013-9-30: Created.
-->
<svg>
<metadata>
Created by iconfont
</metadata>
<defs>

<font id="iconfont" horiz-adv-x="1024" >
  <font-face
    font-family="iconfont"
    font-weight="500"
    font-stretch="normal"
    units-per-em="1024"
    ascent="896"
    descent="-128"
  />
    <missing-glyph />
    
    <glyph glyph-name="5" unicode="&#58890;" d="M476.429474 231.014737c-7.545263 3.233684-17.246316-1.077895-22.635789-8.623158-4.311579-7.545263-2.155789-16.168421 5.389474-19.402105 7.545263-3.233684 18.324211 0 22.635789 8.623158C487.208421 219.157895 485.052632 227.781053 476.429474 231.014737zM526.012632 812C239.292632 812 7.545263 582.408421 7.545263 300 7.545263 17.591579 239.292632-212 526.012632-212s518.467368 229.591579 518.467368 512C1044.48 582.408421 811.654737 812 526.012632 812zM475.351579 11.124211C309.355789 11.124211 140.126316 89.810526 140.126316 219.157895c0 67.907368 44.193684 145.515789 118.568421 219.890526 100.244211 98.088421 217.734737 143.36 261.928421 100.244211 19.402105-19.402105 21.557895-51.738947 8.623158-91.621053-6.467368-19.402105 19.402105-8.623158 19.402105-8.623158 80.842105 33.414737 151.983158 35.570526 177.852632-1.077895 14.012632-19.402105 12.934737-46.349474 0-77.608421-5.389474-14.012632 2.155789-17.246316 12.934737-20.48 46.349474-14.012632 97.010526-47.427368 97.010526-106.711579C836.446316 135.082105 692.008421 11.124211 475.351579 11.124211zM775.006316 421.802105c5.389474 16.168421 2.155789 34.492632-10.778947 48.505263-12.934737 14.012632-31.258947 18.324211-47.427368 15.090526l0 0c-14.012632-3.233684-28.025263 5.389474-31.258947 19.402105-3.233684 14.012632 6.467368 28.025263 20.48 30.181053 34.492632 7.545263 72.218947-3.233684 98.088421-31.258947 25.869474-28.025263 32.336842-65.751579 21.557895-98.088421-4.311579-14.012632-19.402105-20.48-33.414737-16.168421C778.24 393.776842 770.694737 408.867368 775.006316 421.802105L775.006316 421.802105zM928.067368 373.296842c-5.389474-16.168421-22.635789-24.791579-38.804211-19.402105-16.168421 5.389474-24.791579 21.557895-19.402105 37.726316l0 0c16.168421 48.505263 5.389474 103.477895-31.258947 143.36-37.726316 39.882105-92.698947 56.050526-143.36 45.271579-16.168421-3.233684-32.336842 6.467368-36.648421 22.635789-3.233684 16.168421 6.467368 32.336842 23.713684 35.570526l0 0c71.141053 15.090526 148.749474-6.467368 201.566316-63.595789C936.690526 518.812632 950.703158 441.204211 928.067368 373.296842 928.067368 373.296842 928.067368 373.296842 928.067368 373.296842zM425.768421 210.534737c-20.48 8.623158-47.427368 0-59.284211-19.402105-12.934737-19.402105-6.467368-43.115789 14.012632-51.738947 20.48-9.701053 48.505263 0 60.362105 19.402105C453.793684 178.197895 447.326316 201.911579 425.768421 210.534737zM444.092632 364.673684C312.589474 351.738947 212.345263 273.052632 220.968421 187.898947c8.623158-85.153684 122.88-143.36 255.461053-130.425263 132.581053 12.934737 232.825263 91.621053 224.202105 176.774737C690.930526 319.402105 576.673684 377.608421 444.092632 364.673684zM560.505263 164.185263c-26.947368-59.284211-104.555789-91.621053-170.307368-71.141053-63.595789 20.48-90.543158 81.92-62.517895 136.892632 26.947368 53.894737 98.088421 85.153684 161.684211 68.985263C554.037895 282.753684 587.452632 223.469474 560.505263 164.185263z"  horiz-adv-x="1045" />

    
    <glyph glyph-name="xiadan" unicode="&#59044;" d="M652.86475 692.096143l-56.671721 0c0 15.420201-5.3918 28.595268-16.187681 39.277562-10.812253 10.682293-23.99653 16.087397-39.676651 16.087397l-56.672744 0c-15.673981 0-28.857235-5.40408-39.655162-16.087397-10.812253-10.68127-16.210193-23.856337-16.210193-39.277562l-56.799634 0 0-111.61303 281.874809 0L652.865773 692.096143zM537.166681 640.838735c-6.861268-6.857175-15.152095-10.281157-24.772196-10.281157-10.157337 0-18.582217 3.423983-25.175379 10.281157-6.591115 6.862291-9.887184 15.017018-9.887184 24.51637 0 10.141988 3.296069 18.456351 9.887184 25.040303 6.592139 6.447852 15.018042 9.749038 25.175379 9.749038 9.620102 0 17.910928-3.302209 24.772196-9.749038 6.985088-6.583952 10.417257-14.898315 10.417257-25.040303C547.582915 655.855754 544.151769 647.701027 537.166681 640.838735zM708.747501 633.048305l0-108.698654L315.258639 524.349651 315.258639 633.042165 161.911088 633.042165l-0.189312-779.998777 701.463096 0.252757 0.284479 779.75216L708.747501 633.048305zM530.154987-67.796714 317.953004-67.796714c-20.558222 0-37.236066 16.823154-37.236066 37.564547 0 20.732184 16.677844 37.551244 37.236066 37.551244l212.201983 0c20.573571 0 37.236066-16.820084 37.236066-37.551244C567.391053-50.97356 550.729581-67.796714 530.154987-67.796714zM707.207425 92.399825 317.953004 92.399825c-20.558222 0-37.236066 16.823154-37.236066 37.559431 0 20.741393 16.677844 37.557384 37.236066 37.557384l389.253398 0c20.572548 0 37.244252-16.817014 37.244252-37.557384C744.450654 109.222979 727.779973 92.399825 707.207425 92.399825zM280.716938 267.237829c0 20.74037 16.677844 37.559431 37.236066 37.559431l338.958922 0c20.574594 0 37.237089-16.820084 37.237089-37.559431 0-20.733207-16.661472-37.556361-37.237089-37.556361L317.953004 229.681468C297.394782 229.681468 280.716938 246.505645 280.716938 267.237829zM707.207425 389.876983 317.953004 389.876983c-20.558222 0-37.236066 16.82827-37.236066 37.560454s16.677844 37.556361 37.236066 37.556361l389.253398 0c20.572548 0 37.244252-16.823154 37.244252-37.556361S727.779973 389.876983 707.207425 389.876983z"  horiz-adv-x="1024" />

    
    <glyph glyph-name="shumadianqi" unicode="&#58915;" d="M870.062514 565.25427 738.777445 565.25427l-48.314379 98.628298-0.135076 0.264013c-6.344498 11.958356-17.787108 19.461237-30.648021 20.117177-1.199315 0.118704-2.40477 0.179079-3.586688 0.179079L375.579469 684.442836c-7.194866 0-14.172791-2.15099-20.196994-6.220678-5.869684-3.546779-10.723226-8.728802-14.046924-15.004739l-48.802496-97.963149-63.992453 0-78.741365-0.116657c-64.447824-2.818185-116.013247-56.153928-116.013247-121.311927l0-422.337911c0-66.952878 54.448076-121.423467 121.375371-121.423467l714.901153 0c32.501228 0 62.955844 12.277628 85.757153 34.5724 22.971178 22.460548 35.623335 52.650127 35.623335 85.010139L991.443002 443.824663C991.441978 510.780611 936.992879 565.25427 870.062514 565.25427zM108.226399 441.984758c0 25.89681 21.055548 46.965661 46.934962 46.965661l173.067684 0 0 0c10.622942 0.007163 16.090467 11.527544 20.677948 20.168342l48.618301 97.608062 236.927107 0 47.677882-97.342002 0.135076-0.264013c4.696975-8.850575 11.537777-20.163225 21.179368-20.170388l0 0 166.613692 0c25.87839 0 46.933939-21.068851 46.933939-46.965661l0-420.498006c0-25.894763-21.055548-46.960545-46.933939-46.960545L155.161361-25.473793c-25.880437 0-46.934962 21.065781-46.934962 46.960545L108.226399 441.984758zM777.665127 370.495564c21.287839 0 38.606273 17.324574 38.606273 38.619576 0 21.282722-17.318434 38.598086-38.606273 38.598086-21.285792 0-38.60218-17.315364-38.60218-38.598086C739.062947 387.820138 756.379335 370.495564 777.665127 370.495564zM513.076006 18.060723c119.05963 0 215.920678 96.892771 215.920678 215.993333 0 119.081119-96.861048 215.960587-215.920678 215.960587-119.065769 0-215.927841-96.879468-215.927841-215.960587C297.148166 114.953494 394.01126 18.060723 513.076006 18.060723zM511.995395 370.906933c75.952856 0 137.747247-61.803601 137.747247-137.771807 0-75.984578-61.795415-137.802506-137.747247-137.802506-75.958996 0-137.750317 61.817927-137.750317 137.802506C374.244055 309.103332 436.036399 370.906933 511.995395 370.906933z"  horiz-adv-x="1024" />

    
    <glyph glyph-name="tubiao02" unicode="&#58882;" d="M533.204945 648.159723c-11.435995 13.314876-30.184888 13.314876-41.620883 0l-342.378861-399.573165c-11.435995-13.319992-6.434858-24.25659 11.19346-24.25659l128.001279 0c17.621155 0 31.995203-14.379165 31.995203-32.007483l0-256.048609c0-17.626271 14.378142-32.00339 32.001343-32.00339l320.002175 0c17.628318 0 31.996226 14.378142 31.996226 32.00339L704.394887 192.321461c0 17.629342 14.376095 32.007483 32.005437 32.007483l127.999232 0c17.621155 0 22.624339 10.937621 11.185273 24.25659L533.204945 648.159723zM192.395911 736.426164l640.002303 0c35.375346 0 64.00064 28.633481 64.00064 64.011897 0 35.382509-28.625294 64.011897-64.00064 64.011897l-640.002303 0c-35.371252 0-63.99757-28.629387-63.99757-64.011897C128.398341 765.059644 157.023635 736.426164 192.395911 736.426164z"  horiz-adv-x="1025" />

    
    <glyph glyph-name="dianhua" unicode="&#58916;" d="M444.440813 235.880657C356.81101 318.121729 273.054421 413.3987 313.217143 451.059438c57.368592 53.930283 107.379613 87.126336 5.698792 205.991538-101.68082 118.861108-169.506579 27.580149-225.158063-24.680099-64.12139-60.265572-3.374864-284.904819 233.066173-506.9858 236.4482-221.991953 475.710492-279.136441 539.885094-218.826867 55.650461 52.215222 152.792918 115.853611 26.281573 211.388455-126.519532 95.542007-161.928996 48.578392-219.35694-5.345752C633.47719 75.044552 532.071639 153.641631 444.440813 235.880657L444.440813 235.880657 444.440813 235.880657 444.440813 235.880657zM444.440813 235.880657"  horiz-adv-x="1024" />

    
    <glyph glyph-name="pingtaidanbao" unicode="&#58911;" d="M1226.216338 237.135149c-21.296028 34.598051-70.155383 56.021984-145.42693 20.976268C1068.446665 276.081939 1044.784412 296.482638 1000.913315 301.982513c-38.690982 4.796403-63.696228-4.860355-79.428429-16.883337-4.41269 3.389458-9.656757 6.523108-15.796153 9.081189-35.877092 14.900824-85.823632 3.965026-148.88034-32.487634C728.221834 245.065201 701.681739 233.873595 677.507869 226.19935l0.063952 25.77267c0 0 26.795903 7.290532 38.690982 12.982263 24.49363 11.703223 40.929303 26.156383 49.434924 43.423432 8.505621 17.331002 12.790407 44.126905 12.790407 80.515613 0 50.138396-7.674244 86.463153-23.022733 109.038221s-52.76043 51.353485-111.916063 86.527105c-20.656508 12.150887-33.255059 22.639021-37.603797 31.208594C601.404946 624.364726 599.102673 637.219086 599.102673 654.294279c0 13.302023 2.110417 23.214589 6.203347 29.801649 4.09293 6.459156 10.104422 9.720709 18.098426 9.720709 7.354484 0 12.662503-2.430177 15.860105-7.22658 3.197602-4.860355 4.668499-16.115913 4.668499-33.830627l0-37.923557 123.619286 0L767.552336 635.044716c0 40.673495-3.965026 69.451911-11.895079 86.399201-7.8661 17.011242-23.982013 31.080689-48.347739 42.208344-19.057707 8.761429-27.435423 14.069448-52.76043 15.988009L655.316513 812 578.510117 812l0-33.766675C560.923308 775.803148 552.097927 771.454409 538.092431 765.123158c-22.319261-10.232326-38.435174-24.365726-48.475643-42.528104C479.64027 704.432675 474.588059 675.782163 474.588059 636.707469c0-27.179615 3.581314-49.562828 10.616038-67.021734C492.302773 552.22683 501.192106 538.41319 511.872096 528.564577c10.743942-9.848614 32.615538-25.836623 65.742693-47.708219 32.999251-21.67974 53.783662-37.220085 62.225331-46.429178 8.185861-9.336997 12.278791-28.970272 12.278791-59.091681 0-13.685736-2.110417-23.982013-6.459156-30.952785-4.284786-6.90682-10.871846-10.424182-19.761179-10.424182S610.997752 336.644517 607.544342 342.144392C603.963028 347.644267 602.300275 359.98701 602.300275 379.108668L602.300275 441.397952 478.744941 441.397952l0-33.510867c0-38.30727 3.901074-67.917062 11.703223-88.765426C498.18636 298.273295 514.685986 281.070197 539.883088 267.64027c16.755433-8.953285 57.045216-17.90657 57.045216-17.90657l0.767424-38.243318C572.114914 210.403198 554.464152 213.281039 547.941044 214.751936c-34.470147 19.057707-63.824132 42.592056-89.724706 63.312516C406.798901 319.185611 350.329253 356.917312 274.162378 326.987759 212.96028 303.005746 24.17387 225.943542 24.17387 225.943542l-24.17387-9.848614 159.688234-344.189858 22.766925 10.935798c0 0 62.097427 29.737697 86.399201 43.167624 14.261304 7.930052 35.685236 19.889083 136.985261-41.888584 85.503872-52.184861 110.061454-62.609043 136.025981-73.544841 7.098676-3.005746 14.325256-6.075443 23.150637-10.104422 16.435673-7.738196 39.394454-11.639271 65.422933-11.639271 55.766175 0 125.537847 17.714714 174.97277 53.975518l68.17287 49.818636c31.144642 20.72046 305.115164 203.623283 334.980764 230.738946C1247.512366 158.602048 1252.948289 193.775668 1226.216338 237.135149zM1174.990757 160.200849c-20.400699-18.610042-207.972021-145.42693-329.928554-226.77392l-69.068199-50.522108c-64.271796-46.940794-160.903323-50.969773-189.937547-37.411941-9.400949 4.41269-17.203098 7.674244-24.81339 10.935798-24.237822 10.232326-47.132651 19.953035-129.502873 70.155383-67.21359 41.057207-108.462653 56.149888-139.799151 56.149888-18.098426 0-32.871346-5.116163-47.324507-13.110167-14.1334-7.802148-41.376967-21.296028-61.010242-30.824881l-116.392705 250.819885c52.824382 21.551836 177.594804 72.329753 225.175119 90.939795 47.068698 18.418186 82.242318 0.511616 138.328254-44.318761 54.103422-43.35948 135.898076-108.782413 256.31976-108.782413l114.218336 0c43.871097 0 66.829878-23.918061 66.829878-47.580315 0-10.104422-4.348738-19.633275-12.278791-26.540095-10.424182-9.209093-26.540095-14.069448-45.789658-14.069448 0 0-181.24007 5.308019-229.204097 5.308019-39.458406 0-81.410942 27.435423-81.858606 27.755184l-27.62728-41.568823c2.174369-1.406945 54.742943-36.004996 109.485886-36.004996 47.708219 0 227.7332-5.308019 228.500625-5.308019 32.35973 0 59.859106 9.209093 79.556333 26.476143 18.737947 16.563577 29.162128 39.26655 29.162128 64.015988 0 47.260555-40.929303 97.526855-116.712466 97.526855L688.763427 177.467899c28.458656 8.761429 59.795154 21.807644 93.114164 41.121159 64.975269 37.667749 94.009493 33.510867 103.474394 30.057457 8.761429-3.261554 11.191606-9.400949 11.31951-9.400949l18.865851-70.411192 28.650512 67.981014c0.895329 2.110417 10.168374 20.912316 50.522108 15.796153 42.71996-5.308019 49.62678-30.377217 50.202348-32.67949l6.203347-35.301524 30.888833 18.034474c47.836123 27.819136 87.806145 31.080689 101.683737 8.505621C1197.949538 187.892081 1196.606545 179.834124 1174.990757 160.200849z"  horiz-adv-x="1243" />

    
    <glyph glyph-name="jiazai" unicode="&#59000;" d="M472.190319-13.437801C253.102508-13.437801 74.848709 164.817022 74.848709 383.903809S253.102508 781.24542 472.190319 781.24542c209.396077 0 383.604748-163.708526 396.567991-372.708584 1.204431-19.48989-13.592576-36.265972-33.083489-37.470403-19.885909-1.527796-36.265972 13.592576-37.470403 33.083489-10.661827 171.817204-153.87353 306.398342-326.014098 306.398342-180.105984 0-326.643432-146.537448-326.643432-326.643432s146.537448-326.643432 326.643432-326.643432c94.341668 0 184.02627 40.760332 246.075465 111.836111 12.874215 14.68956 35.168987 16.182564 49.876967 3.37998 14.70798-12.837376 16.21838-35.168987 3.37998-49.876967C696.04162 36.151617 586.93876-13.437801 472.190319-13.437801zM816.222793 297.978834 677.259858 484.56951c-2.316765 2.783393-0.541329 7.368828 2.974751 7.368828l278.206256 0c3.306302-0.051165 5.269004-4.278443 3.107781-7.18054l-139.681296-187.41546C820.155359 295.817612 817.618583 296.108231 816.222793 297.978834z"  horiz-adv-x="1024" />

    
    <glyph glyph-name="muying" unicode="&#58995;" d="M583.785953 80.691019c-206.959585 0-375.335411 168.372755-375.335411 375.332341l0 24.817222 350.518189 0L558.968731 831.355701l24.817222 0c206.959585 0 375.329271-168.372755 375.329271-375.332341S790.745539 80.691019 583.785953 80.691019zM259.018242 431.206138c12.729929-168.037111 153.525606-300.880675 324.767711-300.880675 179.591261 0 325.694827 146.106636 325.694827 325.697897 0 171.239036-132.840494 312.034712-300.877605 324.761572l0-349.578794L259.018242 431.206138zM307.623239 431.199998c-11.294231 0-21.508873 7.764847-24.157189 19.243273l-75.79629 328.491523L99.621928 778.934794c-13.70514 0-24.817222 11.112082-24.817222 24.817222s11.112082 24.817222 24.817222 24.817222l127.787408 0c11.55415 0 21.581528-7.976672 24.180725-19.237133l80.237439-347.727633c3.084245-13.357216-5.247514-26.680663-18.600637-29.760814C311.349097 431.408753 309.470307 431.199998 307.623239 431.199998zM810.654984-64.037223c-63.866586 0-115.828029 51.960419-115.828029 115.830075s51.960419 115.831099 115.828029 115.831099c63.872726 0 115.833145-51.960419 115.833145-115.831099S874.52771-64.037223 810.654984-64.037223zM810.654984 117.989507c-36.498262 0-66.193585-29.694299-66.193585-66.196655 0-36.501332 29.694299-66.196655 66.193585-66.196655 36.504402 0 66.199725 29.694299 66.199725 66.196655C876.854709 88.295208 847.159386 117.989507 810.654984 117.989507zM357.741707-64.037223c-63.866586 0-115.828029 51.960419-115.828029 115.830075s51.960419 115.831099 115.828029 115.831099c63.872726 0 115.833145-51.960419 115.833145-115.831099S421.614433-64.037223 357.741707-64.037223zM357.741707 117.989507c-36.498262 0-66.193585-29.694299-66.193585-66.196655 0-36.501332 29.694299-66.196655 66.193585-66.196655 36.504402 0 66.199725 29.694299 66.199725 66.196655C423.941432 88.295208 394.246109 117.989507 357.741707 117.989507z"  horiz-adv-x="1024" />

    
    <glyph glyph-name="neiyi" unicode="&#58998;" d="M303.372425 12.736325c-131.915425 0-239.239779 107.321284-239.239779 239.23671 0 72.246441 32.18298 139.886981 88.294952 185.580672 8.223289 6.700609 19.812231 7.43432 28.835745 1.810229l344.083639-214.815507c8.998955-5.618974 13.438057-16.330944 11.048637-26.66736C511.181355 88.870306 415.353846 12.736325 303.372425 12.736325zM170.735569 387.371794c-36.373419-35.576263-56.924477-84.019579-56.924477-135.39876 0-104.522542 85.038792-189.558263 189.561333-189.558263 82.8438 0 154.516166 52.570309 179.919742 129.825834L170.735569 387.371794zM721.015408 12.736325c-111.976304 0-207.79665 76.132958-233.024218 185.140651-2.38942 10.336416 2.049682 21.052478 11.048637 26.670429l344.083639 214.815507c9.017374 5.624091 20.606317 4.89038 28.835745-1.810229 56.111972-45.693692 88.294952-113.334231 88.294952-185.580672C960.255187 120.058632 852.930833 12.736325 721.015408 12.736325zM541.095665 192.240605c25.408693-77.255525 97.082082-129.825834 179.919742-129.825834 104.522542 0 189.561333 85.035722 189.561333 189.558263 0 51.379181-20.552082 99.82352-56.924477 135.39876L541.095665 192.240605zM168.109766 399.919575c-13.71742 0-24.838711 11.121292-24.838711 24.838711L143.271054 761.49254c0 13.71742 11.121292 24.838711 24.838711 24.838711s24.838711-11.121292 24.838711-24.838711l0-336.734254C192.948477 411.040866 181.827185 399.919575 168.109766 399.919575zM861.857133 399.919575c-13.71742 0-24.838711 11.121292-24.838711 24.838711L837.018422 761.49254c0 13.71742 11.121292 24.838711 24.838711 24.838711 13.71742 0 24.838711-11.121292 24.838711-24.838711l0-336.734254C886.695844 411.040866 875.574552 399.919575 861.857133 399.919575z"  horiz-adv-x="1024" />

    
    <glyph glyph-name="fahuo" unicode="&#59007;" d="M903.765333 668.444444 682.382222 668.444444l0-56.888889 176.184889 0 72.106667-312.888889-234.069333 0-85.191111-113.777778-198.769778 0-85.191111 113.777778L93.326222 298.666667l72.106667 312.888889 176.184889 0L341.617778 668.444444 120.234667 668.444444 28.444444 269.937778 120.661333-99.555556l782.705778 0L995.555556 269.937778 903.765333 668.444444zM858.965333-42.666667 165.034667-42.666667 94.008889 241.777778l204.999111 0 85.191111-113.777778 255.573333 0 85.191111 113.777778 204.999111 0L858.965333-42.666667zM370.005333 378.254222l283.960889 0 0 312.888889 122.197333 0L512 867.555556 247.836444 691.143111l122.197333 0L370.033778 378.254222zM426.808889 742.286222l85.191111 56.888889 85.191111-56.888889 0-307.143111-170.382222 0L426.808889 742.286222z"  horiz-adv-x="1024" />

    
    <glyph glyph-name="renqun" unicode="&#58970;" d="M629.959064 411.206642c44.753273 38.250162 73.667813 97.498568 73.667813 164.079986 0 115.097388-86.070284 208.717625-191.864796 208.717625-105.810884 0-191.875029-93.620237-191.875029-208.717625 0-66.581418 28.921703-125.829823 73.668837-164.079986-117.953436-51.265594-201.586205-176.579671-201.586205-322.93804l0-69.565379c0-19.228947 14.305821-34.788318 31.979342-34.788318l575.609737 0c17.679661 0 31.980365 15.559371 31.980365 34.788318l0 69.565379C831.540152 234.658693 747.912499 359.941048 629.959064 411.206642L629.959064 411.206642zM629.959064 411.206642M821.922097 423.773865c26.172079 31.389918 41.599444 72.664973 41.599444 116.696816 0 95.934956-71.733765 173.962054-159.888524 173.962054-2.659573 0-5.127787-0.715291-7.745405-0.845251 13.862729-21.780049 24.388457-46.136783 31.162744-72.222905 0.011256 0 0.01535-0.00614 0.025583-0.00614-0.214894-0.021489-0.344854-0.034792-0.344854-0.034792s43.914162-127.292128-43.528376-227.167836c14.57188-7.137561 180.020026-81.84096 179.99956-325.888232 0.109494 0 0.213871 0.01535 0.319272 0.01535l0-0.007163 63.956637 0c17.673521 0 31.980365 15.555278 31.980365 34.780131l0 53.815673C959.453427 283.033447 905.181359 376.857323 821.922097 423.773865L821.922097 423.773865zM821.922097 423.773865M339.998089 414.156834c-87.439468 99.875708-43.533492 227.167836-43.533492 227.167836 6.749728 26.126031 17.300015 50.482765 31.144324 72.257697-2.601244 0.14224-5.072529 0.851391-7.721869 0.851391-88.159876 0-159.891593-78.027098-159.891593-173.962054 0-44.025703 15.431457-85.301781 41.596374-116.696816C118.332571 376.857323 64.06255 283.033447 64.06255 176.872592l0-53.815673c0-19.224854 14.300704-34.780131 31.980365-34.780131l63.953567 0C159.979086 332.315874 325.422116 407.020296 339.998089 414.156834L339.998089 414.156834zM339.998089 414.156834"  horiz-adv-x="1024" />

    
    <glyph glyph-name="unie602" unicode="&#58962;" d="M368 140.992q0-32.992-23.488-56.512t-56.512-23.488-56.512 23.488-23.488 56.512q0 16 6.496 30.496t16.992 25.504 25.504 16.992 31.008 6.016q32.992 0 56.512-23.008t23.488-56zM850.016 140.992q0-32.992-23.488-56.512t-56.512-23.488q-8.992 0-18.016 2.016t-16.512 6.016-14.496 9.504-12.512 12.512-9.504 14.496-6.016 16.512-2.016 19.008q0 32.992 23.008 56t56 23.008q22.016 0 40.512-10.496t28.992-28.992 10.496-39.488zM934.016 433.984l-76.992 103.008q-2.016 0.992-4 4l-11.008 12q-3.008 4-8.992 8.992t-12.992 7.008-15.008 2.016l-155.008 0q-14.016 0-24.512-10.016t-10.496-24l0-344.992q0-14.016 10.016-24t24.992-10.016q4 28.992 20.992 52.992t43.008 38.016 56 14.016q46.016 0 80.512-30.016t40.512-75.008l35.008 0q14.016 0 24 10.016t10.016 24l0 172.992q0 6.016-1.504 13.504t-4.512 13.504l-4 14.016q-3.008 6.016-6.016 11.008t-4.992 8.992-4 6.016zM719.008 364.992l0 136.992 84 0q3.008 0 6.016-2.016t4.992-4l2.016-2.016 72.992-100q3.008-4 4.992-7.488t4-7.488 3.008-7.488 0.992-6.496l-183.008 0zM546.016 708.992l-448 0q-14.016 0-24-10.016t-10.016-24l0-483.008q0-14.016 10.016-24t24-10.016l68.992 0q7.008 44.992 40.992 75.008t80 30.016 80-30.016 40.992-75.008l136.992 0q7.008 0 13.504 2.496t11.008 7.488 7.488 11.008 3.008 12.992l0 483.008q0 7.008-3.008 12.992t-7.488 11.008-11.008 7.488-13.504 2.496z"  horiz-adv-x="1024" />

    
    <glyph glyph-name="nanzhuang01" unicode="&#58883;" d="M722.785727-58.35685 297.460786-58.35685c-35.352159 0-35.352159 33.997302-35.352159 50.340525l11.056823 518.655584-75.200726-67.512626c-3.741207-3.777023-15.82236-12.565177-34.493605-1.039679-7.484462 4.635577-14.337543 11.481496-19.331277 16.482393l-84.550675 72.951499c-11.305487 11.247158-35.549657 35.513842-15.809057 55.276954L155.048285 698.069045c7.424086 9.014304 75.998905 88.615247 183.900404 88.615247l65.432245 0 0-29.992081-65.432245 0c-97.658204 0-160.403247-77.251432-161.025417-78.034261-0.350994-0.438998-0.724501-0.857531-1.12052-1.252527L67.357084 567.950546c2.570545-4.40738 9.584286-11.43033 12.499685-14.343683l84.572164-72.974012c3.741207-3.691065 11.028171-10.969842 15.442714-13.473873l99.005898 88.915076c4.437056 4.00522 10.851139 4.965082 16.269545 2.468215 5.432733-2.489704 8.866948-7.973602 8.743128-13.94971l-11.788487-552.931225c0-4.465708 0-17.178241 2.116197-19.703761-0.066515 0.051165 0.937348-0.322341 3.243881-0.322341L722.785727-28.364769c2.12336 0 3.170203 0.329505 3.3984 0.454348 1.961678 2.393513 1.961678 15.106046 1.961678 19.894096l-11.788487 552.608883c-0.124843 5.976108 3.309372 11.460006 8.743128 13.94971 5.418406 2.481518 11.818163 1.523703 16.270569-2.468215l100.111069-89.87289 112.243387 100.923574-110.281709 110.281709c-0.388856 0.38067-0.76134 0.805342-1.105171 1.230014-0.629333 0.782829-63.836911 78.056774-161.039743 78.056774l-62.72253 0L618.576317 786.684292l62.72253 0c107.901499 0 176.475294-79.600943 183.900404-88.615247l111.262036-111.270223c14.982226-14.996552 14.982226-24.537859 0.124843-39.409568l-115.940592-104.254435c-5.528923-5.557576-10.712993-10.741645-19.184945-10.741645-8.470929 0-13.657045 5.184069-19.653619 11.180644l-74.723865 67.073628 11.056823-518.341429C758.136863-24.359548 758.136863-58.35685 722.785727-58.35685zM393.061121 771.68774M539.625174 526.309146c-4.145413 0-7.497765 3.353374-7.497765 7.497765L532.12741 685.627688c0 4.145413 3.353374 7.497765 7.497765 7.497765 4.143367 0 7.497765-3.353374 7.497765-7.497765l0-151.820778C547.123962 529.662521 543.769564 526.309146 539.625174 526.309146zM479.641011 526.309146c-4.145413 0-7.497765 3.353374-7.497765 7.497765L472.143247 685.627688c0 4.145413 3.353374 7.497765 7.497765 7.497765 4.143367 0 7.497765-3.353374 7.497765-7.497765l0-151.820778C487.138776 529.662521 483.784378 526.309146 479.641011 526.309146zM518.447852 647.053138c0-5.255701-4.260024-9.525957-9.533121-9.525957-5.257747 0-9.519818 4.269233-9.519818 9.525957 0 5.26491 4.26207 9.534144 9.519818 9.534144C514.187829 656.588305 518.447852 652.319072 518.447852 647.053138zM518.447852 617.061057c0-5.255701-4.260024-9.525957-9.533121-9.525957-5.257747 0-9.519818 4.269233-9.519818 9.525957 0 5.26491 4.26207 9.534144 9.519818 9.534144C514.187829 626.596224 518.447852 622.325967 518.447852 617.061057zM518.447852 587.068975c0-5.255701-4.260024-9.525957-9.533121-9.525957-5.257747 0-9.519818 4.269233-9.519818 9.525957 0 5.26491 4.26207 9.534144 9.519818 9.534144C514.187829 596.603119 518.447852 592.333886 518.447852 587.068975zM518.447852 557.076894c0-5.255701-4.260024-9.525957-9.533121-9.525957-5.257747 0-9.519818 4.269233-9.519818 9.525957 0 5.26491 4.26207 9.534144 9.519818 9.534144C514.187829 566.611038 518.447852 562.341804 518.447852 557.076894zM192.891172 475.608417 76.671217 580.889229 86.732363 592.004381 202.952318 486.723569ZM828.204685 470.754876 818.115909 481.854679 939.210895 591.998241 949.301717 580.896392ZM512.158612 781.176858c-37.07336 0-65.344241 2.562359-65.768913 2.599198l1.38965 14.937201c0.608867-0.058328 62.899562-5.682419 123.257232-0.007163l1.404999-14.922874C551.744189 781.827681 530.830881 781.176858 512.158612 781.176858zM510.936785 808.152233c-43.832298 0-75.559906 3.199878-76.028581 3.243881l1.539053 14.922874c0.695848-0.065492 70.653153-7.109931 145.999189 0l1.407046-14.922874C558.114271 808.957575 532.99108 808.152233 510.936785 808.152233zM458.522018 666.553261c-1.098008 0-2.203178 0.2415-3.228531 0.733711-1.661849 0.789992-40.865733 20.48045-60.812017 115.618251-0.511653 2.438539 0.220011 4.972245 1.955538 6.758937l33.390481 34.414811c1.917676 1.970888 4.765537 2.753717 7.40976 1.991354 2.651386-0.738827 4.678556-2.883677 5.287423-5.564739 0.160659-0.709151 16.576537-71.054289 70.396303-107.205651 2.085498-1.397836 3.331885-3.749394 3.316535-6.260587-0.01535-2.51017-1.282203-4.846378-3.375887-6.230911l-50.217728-33.023114C461.399555 666.971793 459.96488 666.553261 458.522018 666.553261zM409.989675 782.09988c14.945387-67.825758 39.643905-92.224448 48.532343-99.070366l37.052894 24.360827c-38.617529 30.350239-56.954153 75.061556-64.027246 96.925516L409.989675 782.09988zM559.308469 666.553261c-1.442862 0-2.877537 0.418532-4.123924 1.231037l-50.201355 33.030277c-2.094708 1.376347-3.360538 3.712555-3.375887 6.223748-0.01535 2.512217 1.230014 4.862751 3.317559 6.260587 53.819766 36.151361 70.235644 106.496499 70.396303 107.205651 0.607844 2.681062 2.636037 4.825912 5.287423 5.564739 2.635013 0.76134 5.499248-0.021489 7.40976-1.991354l33.375132-34.414811c1.735527-1.785669 2.467191-4.320399 1.955538-6.758937-19.930935-95.138824-59.151191-114.828258-60.812017-115.618251C561.510624 666.794761 560.405453 666.553261 559.308469 666.553261zM522.270924 707.390341l37.037545-24.360827c8.888438 6.845918 33.594119 31.244608 48.532343 99.070366l-21.541619 22.217001C579.224054 782.451898 560.888454 737.74058 522.270924 707.390341z"  horiz-adv-x="1024" />

    
    <glyph glyph-name="dun" unicode="&#58967;" d="M515.167641-85.003995 475.332149-61.74445 468.577521-57.887466C351.10476 8.842723 278.901093 55.311835 237.915988 99.010626 209.42347 129.272196 188.177765 162.332116 173.112142 196.258465 163.228101 218.516385 157.424816 237.702283 154.710123 251.572681L133.928801 247.444086 154.991247 249.703438 153.978502 259.286905 132.916056 257.027553 154.097371 257.113974 152.138573 744.438506 137.788991 724.152035 513.848677 853.253903 500.181797 853.255075 876.23778 724.08251 861.891664 744.381359 859.614223 254.581098 880.79548 254.481126 859.879358 257.848577C857.370244 242.028911 851.555928 221.171675 841.474619 197.797917 826.716314 163.580416 805.303245 130.067244 776.06648 98.960128 749.806585 71.012381 701.920446 36.18048 640.311716-1.784934 599.103527-27.17884 558.270593-50.08196 524.689963-67.811504L494.271279-84.806729 515.167641-85.003995 515.167641-85.003995ZM493.926022-121.931827 504.318687-128 514.822384-122.129086 544.797189-105.375042C578.694941-87.484899 620.29722-64.15025 662.415857-38.195302 727.018613 1.615133 777.300751 38.189868 806.828785 69.615813 864.673031 131.160496 893.162869 197.214896 901.711601 251.113677L901.969093 252.737126 901.976737 254.381155 904.254179 744.181415 904.325537 759.527965 889.90807 764.480264 513.852089 893.65283 507.018847 896 500.185209 893.654001 124.125523 764.552133 109.714286 759.604733 109.775941 744.265663 111.734739 256.941131 111.739119 255.851609 111.85361 254.768201 112.866355 245.184734 113.14748 243.315491C116.451388 226.434575 123.17866 204.193931 134.442935 178.827856 151.383846 140.678546 175.230171 103.571866 207.153382 69.666662 252.323976 21.505192 325.7696-25.763218 447.733021-95.044272L454.269722-98.775735 493.926022-121.931827 493.926022-121.931827ZM507.227386-53.658112 471.921625-32.576146 466.053846-29.150384C360.458461 32.192519 296.055273 74.580919 258.327854 115.718137 231.938481 144.381264 212.237942 175.731668 198.256877 207.929366 189.033018 229.171449 183.578884 247.611772 180.97465 261.219409L180.136893 269.498866 178.426099 710.727342 175.268024 706.230331 508.565619 823.245564 505.467076 823.245835 838.761384 706.166521 835.604092 710.666208 833.58562 266.721492C826.755679 223.030235 803.373253 167.58863 755.649851 115.661268 731.288313 89.146185 688.05188 56.983537 632.453608 21.945351 595.629423-1.261356 559.184729-22.166491 529.170456-38.372308L502.504781-53.613019 507.227386-53.658112 507.227386-53.658112ZM502.427613-61.817403 504.775938-63.219646 507.150218-61.862488 533.716561-46.67697C563.801715-30.434443 600.41845-9.43063 637.445921 13.904187 693.707513 49.360406 737.476549 81.919239 762.557872 109.217733 811.67703 162.663812 835.788032 219.83292 842.943137 265.967633L845.017995 710.622761 845.033384 714.00795 841.860703 715.122447 508.566389 832.20176 507.017164 832.74597 505.467845 832.20203 172.170251 715.186796 168.998878 714.07338 169.012177 710.689784 170.748239 268.989017 171.671091 259.830472C174.460907 245.158962 180.11247 226.051138 189.632132 204.127832 204.018107 170.99765 224.282143 138.750523 251.419771 109.274683 290.070008 67.131224 354.754196 24.557883 461.342812-37.362L467.161892-40.759077 502.427613-61.817403 502.427613-61.817403ZM350.812395 608.570652 463.654227 409.991153 381.788583 409.991153 381.788583 382.333841 479.142322 382.333841 479.142322 328.125509 381.788583 328.125509 381.788583 300.468198 479.142322 300.468198 479.142322 213.62424 527.81919 213.62424 527.81919 300.468198 625.726074 300.468198 625.726074 328.125509 527.81919 328.125509 527.81919 382.333841 625.726074 382.333841 625.726074 409.991153 543.307285 409.991153 656.149118 608.570652 601.38764 608.570652 503.480756 427.138686 405.573872 608.570652 350.812395 608.570652Z"  horiz-adv-x="1024" />

    
    <glyph glyph-name="dui" unicode="&#58889;" d="M139.266345 409.340131c0-71.186296 19.826558-139.504264 56.671721-198.642153 5.353938-8.601912 16.672728-11.230786 25.276686-5.871731 8.597819 5.358031 11.227716 16.678868 5.868661 25.276686-33.242102 53.360302-51.118238 114.958218-51.118238 179.237197 0 187.486068 151.983483 339.469552 339.465458 339.469552 187.485045 0 339.469552-151.983483 339.469552-339.469552 0-187.480952-151.984507-339.464435-339.469552-339.464435-77.879742 0-151.692864 26.28055-211.334219 73.785493-7.924483 6.315846-19.4684 5.007037-25.7822-2.918469-6.313799-7.928576-5.008061-19.472494 2.920516-25.784246 66.079998-52.637848 147.93733-81.782631 234.196926-81.782631 207.754694 0 376.169405 168.413688 376.169405 376.163265 0 207.753671-168.413688 376.169405-376.169405 376.169405C307.680033 785.509537 139.266345 617.094826 139.266345 409.340131L139.266345 409.340131zM738.502176 583.659319c-7.655354 7.182586-19.732413 6.838755-26.915-0.837064L457.559599 312.35424 318.793138 449.084321c-7.504928 7.391341-19.561521 7.315616-26.951839-0.189312-7.391341-7.487531-7.296173-19.563568 0.208754-26.935466l152.672168-150.406568c0.058328-0.056282 0.134053-0.075725 0.192382-0.130983 0.055259-0.058328 0.074701-0.134053 0.134053-0.192382 1.197268-1.14201 2.647293-1.790786 4.03592-2.552126 0.686638-0.401136 1.277086-0.991584 2.000564-1.276063 2.246157-0.876973 4.629437-1.334391 6.990205-1.334391 2.496867 0 4.990664 0.494257 7.315616 1.485841 0.782829 0.324388 1.38965 0.99056 2.114151 1.409093 1.429559 0.840134 2.915399 1.544169 4.133134 2.78237 0.058328 0.058328 0.077771 0.150426 0.134053 0.208754 0.036839 0.058328 0.116657 0.075725 0.170892 0.134053l267.3807 284.657178C746.561735 564.3833 746.159576 576.439894 738.502176 583.659319L738.502176 583.659319zM738.502176 583.659319"  horiz-adv-x="1024" />

    
    <glyph glyph-name="nvzhuang" unicode="&#59189;" d="M707.93728 317.15328c-61.50656 82.35008-36.80256 147.64032-30.8992 160.512l23.6032 23.6032c44.28288 44.28288 44.3392 116.28544 0.11264 160.52736-6.76864 6.76352-14.23872 12.35968-22.11328 17.0496L678.64064 801.48992l-38.80448 0 0-108.30848c-35.14368 5.98016-72.61184-4.5056-99.72224-31.60064l-34.85696-34.85696-34.85696 34.85696c-27.20768 27.19744-64.82432 37.66784-100.0448 31.56992L370.3552 801.48992l-38.80448 0 0-122.81344c-7.75168-4.65408-15.11936-10.19392-21.79072-16.8704-44.22656-44.24192-44.17024-116.24448 0.11264-160.52736l25.24672-25.2672c2.08896-18.7648 7.17824-98.14528-44.13952-173.312-66.62144-97.5616-50.78016-288.08704-50.07872-296.1408 0.5888-6.68672 4.58752-12.60032 10.55232-15.63136 5.92896-2.9952 101.52448-50.11968 249.77408-50.11968 75.86816 0 165.55008 12.35456 264.02304 49.26464 7.2192 2.70848 12.14464 9.43616 12.56448 17.14688C778.25536 15.4624 787.61472 210.40128 707.93728 317.15328zM337.19808 634.368c29.10208 29.06624 76.51328 28.98944 105.76896-0.22528l47.23712-47.23712c4.13184-4.13184 9.6512-5.92896 15.0528-5.5552 5.4016-0.37376 10.92096 1.42336 15.0528 5.5552l47.23712 47.23712c29.19936 29.19936 76.6464 29.312 105.76896 0.22528 29.08672-29.10208 29.0304-76.4928-0.11264-105.65632l-26.24512-26.24512c-0.34816-0.37888-0.67584-0.77824-0.99328-1.18784-1.7152-1.9712-2.96448-4.18304-3.74784-6.53824-2.26816-4.87936-5.98016-13.9776-9.00096-26.51648-118.2208 47.19104-213.76 19.98848-258.55488 0.64512-0.63488 10.3936-1.664 16.80384-1.8432 17.81248-0.70656 4.18304-2.75456 7.78752-5.58592 10.55232-0.90624 1.82272-2.03264 3.5584-3.54816 5.07904l-26.37824 26.3936C308.16768 557.87008 308.11136 605.2608 337.19808 634.368zM739.40992 21.94432c-234.57792-83.38944-417.14176-18.90816-460.59008-0.75776-2.27328 41.30816-6.17472 185.84576 44.22656 259.64544 35.51232 51.99872 47.58528 105.35936 50.97984 144.74752 24.76032 13.44512 124.33408 58.9056 254.37696 2.67776-0.256-35.92704 9.98912-82.84672 48.42496-134.32832C737.26976 212.96128 740.01408 65.84832 739.40992 21.94432z"  horiz-adv-x="1024" />

    
    <glyph glyph-name="fangan" unicode="&#59092;" d="M865.770767 231.408673m-50.157353 0a50.157353 50.157353 0 1 1 100.314707 0 50.157353 50.157353 0 1 1-100.314707 0ZM578.137815-56.71649l-0.492211 0.49221c-13.4575 13.4575-13.4575 35.276435 0 48.733934l192.543248 192.543248c13.4575 13.4575 35.276435 13.4575 48.733934 0l0.492211-0.49221c13.4575-13.4575 13.4575-35.276435 0-48.734958L626.871749-56.71649c-13.4575-13.4575-35.276435-13.4575-48.733934 0zM704.982758 831.372074H212.49516c-57.580416 0-104.425328-46.844911-104.425327-104.425328v-685.550685c0-57.580416 46.844911-104.425328 104.425327-104.425327l250.346745 0.016373L809.142026 283.287227l0.266059 443.659519c0 57.579393-46.844911 104.425328-104.425327 104.425328z m-43.220361-638.062114c0-19.032472-15.428388-34.46086-34.460859-34.46086H290.175357c-19.032472 0-34.46086 15.428388-34.460859 34.46086v0.695848c0 19.032472 15.428388 34.46086 34.460859 34.46086h337.126181c19.032472 0 34.46086-15.428388 34.460859-34.46086v-0.695848z m0 155.533332c0-19.032472-15.428388-34.46086-34.460859-34.460859H290.175357c-19.032472 0-34.46086 15.428388-34.460859 34.460859v0.695848c0 19.032472 15.428388 34.46086 34.460859 34.46086h337.126181c19.032472 0 34.46086-15.428388 34.460859-34.46086v-0.695848z m-173.962054 152.472624c0-19.032472-15.428388-34.46086-34.460859-34.46086H290.17638c-19.032472 0-34.46086 15.428388-34.460859 34.46086v0.695848c0 19.032472 15.428388 34.46086 34.460859 34.46086h163.164127c19.032472 0 34.46086-15.428388 34.46086-34.46086v-0.695848z m124.383892 98.272187h-34.808784V831.355701h34.808784v-196.958814H809.142026v-34.808784H612.184235z"  horiz-adv-x="1024" />

    
    <glyph glyph-name="shouji" unicode="&#58922;" d="M755.609-36.928H268.395c-28.857 0-52.205 20.154-52.205 44.996V788.072c0 24.84 23.348 44.996 52.205 44.996h487.214c28.852 0 52.2-20.154 52.2-44.996v-780.004c0-24.842-23.348-44.996-52.2-44.996z m-243.61 44.996c19.204 0 34.804 13.458 34.804 30.008 0 16.55-15.6 30.008-34.804 30.008-19.2 0-34.798-13.458-34.798-30.008-0.001-16.55 15.598-30.008 34.798-30.008z m243.61 735.008H268.394V113.08h487.214V743.076z"  horiz-adv-x="1024" />

    
    <glyph glyph-name="xiangbao" unicode="&#58929;" d="M937.424 578.624c-0.88 32.656-30.496 58.976-66.8 58.976h-61.488c-24.4 124.128-143.68 218.72-287.072 218.72S259.392 761.712 234.992 637.6H148.864c-36.32 0-65.968-26.368-66.784-59.056L32.64-26.192l-0.096-2.336c0-33.344 29.968-60.464 66.784-60.464h824c36.832 0 66.8 27.12 66.8 60.464l-52.704 607.152zM522.064 798.72c111.04 0 204.08-68.976 228.08-161.12H293.968c24 92.144 117.056 161.12 228.096 161.12zM148.864 580h721.76c5.696 0 8.896-2.656 9.216-2.848l17.984-207.2h-3.296c0-59.808-112.848-125.376-284.496-144.096-11.712 44.112-51.392 76.64-98.688 76.64s-86.976-32.528-98.688-76.64c-171.664 18.72-284.512 84.304-284.512 144.096h-5.328l16.752 204.864-0.032 1.632c0.464 0.896 3.648 3.552 9.328 3.552z m774.464-611.408h-824a14.88 14.88 0 0 0-9.104 2.816l24.928 304.864c57.056-55.408 164.704-95.392 298.624-108.544 13.072-41.92 51.792-72.336 97.552-72.336 45.76 0 84.464 30.4 97.552 72.336 132.816 13.04 239.776 52.496 297.184 107.2l26.32-303.136c-0.944-1.12-4.016-3.2-9.056-3.2z"  horiz-adv-x="1024" />

    
    <glyph glyph-name="you" unicode="&#58894;" d="M771.185778 413.240889a54.954667 54.954667 0 0 0-15.928889-39.480889L351.573333-29.923556a56.888889 56.888889 0 0 0-80.440889 80.440889L633.742222 413.240889 271.132444 776.078222A56.888889 56.888889 0 0 0 351.573333 856.519111l403.683556-403.683555c10.467556-10.467556 15.928889-24.689778 15.928889-39.025778z"  horiz-adv-x="1024" />

    
    <glyph glyph-name="xiajia" unicode="&#59241;" d="M864.256-57.856H156.16c-68.608 0-124.416 53.76-124.416 119.808v269.312c0 16.384 13.312 29.696 29.696 29.696s29.696-13.312 29.696-29.696v-269.312c0-32.768 29.184-59.904 64.512-59.904h708.096c35.84 0 64.512 26.624 64.512 59.904v269.312c0 16.384 13.312 29.696 29.696 29.696s29.696-13.312 29.696-29.696v-269.312c1.024-66.048-54.784-119.808-123.392-119.808zM310.272 446.464c7.68 0 15.36-3.072 20.992-8.704l178.688-178.688 178.688 178.688c11.776 11.776 30.72 11.776 42.496 0 11.776-11.776 11.776-30.72 0-42.496L509.952 174.08 289.28 395.776c-11.776 11.776-11.776 30.72 0 42.496 5.632 5.632 13.312 8.192 20.992 8.192zM509.952 835.584c16.384 0 29.696-13.312 29.696-29.696v-550.4c0-16.384-13.312-29.696-29.696-29.696-16.384 0-29.696 13.312-29.696 29.696V805.376c0 16.384 13.312 30.208 29.696 30.208z"  horiz-adv-x="1024" />

    
    <glyph glyph-name="groupCate-2" unicode="&#58904;" d="M695.911148 402.948561l-49.440016 0c1.062192 2.63706 1.907443 5.411243 1.907443 8.380878L648.378575 508.716466c0 13.909801-12.768815 25.183566-28.526707 25.183566l-24.730241 0L595.121628 760.5449590000001c0 2.105964-0.294712 4.209882-0.905626 6.256494-11.842723 40.823777-32.619932 62.721507-61.717643 65.101717-57.212026 4.328585-109.231797-80.840166-128.708384-117.828592-1.730411-3.344165-2.65548-6.964622-2.65548-10.622942l0-104.07638c0-13.909801 12.767791-25.182542 28.525684-25.182542 15.759939 0 28.528754 11.273764 28.528754 25.182542l0 98.40931c21.936615 40.057321 53.335742 78.57866 68.112284 83.516112 2.143826-2.183735 6.884804-8.400321 11.763928-24.041556L538.065144 533.900032l-146.435117 0c-15.757892 0-28.52773-11.273764-28.52773-25.183566l0-97.386004c0-2.970658 0.847298-5.743818 1.909489-8.380878l-41.84606 0c-15.758915 0-28.52773-11.272741-28.52773-25.182542l0-416.34236c0-13.929244 12.768815-25.182542 28.52773-25.182542l372.744399 0c15.757892 0 28.52773 11.253298 28.52773 25.182542l0 416.34236C724.438878 391.67582 711.670064 402.948561 695.911148 402.948561zM420.159804 411.329439L420.159804 483.532901l171.165358 0 0-72.203462c0-2.970658 0.845251-5.743818 1.927909-8.380878L418.231895 402.948561C419.314553 405.585621 420.159804 408.359804 420.159804 411.329439zM667.384441-13.393798999999944l-315.689962 0L351.694479 352.583476l315.689962 0L667.384441-13.393798999999944z"  horiz-adv-x="1024" />

    
    <glyph glyph-name="yanjing" unicode="&#58977;" d="M511.948323 647.192308c-293.14141 0-448.565249-277.992385-448.565249-277.992385s167.818123-247.090585 448.565249-247.090585c280.767592 0 448.604134 247.090585 448.604134 247.090585S822.670134 647.192308 511.948323 647.192308zM512.223592 226.47940700000004c-89.384773 0-161.849178 70.711482-161.849178 157.924799 0 87.212294 72.464405 157.924799 161.849178 157.924799 89.384773 0 161.849178-70.712505 161.849178-157.924799C674.072771 297.19088899999997 601.607342 226.47940700000004 512.223592 226.47940700000004zM511.967766 448.800865c-39.134299 0-70.857814-31.467689-70.857814-70.273507 0-38.805818 31.723515-70.273507 70.857814-70.273507s70.857814 31.467689 70.857814 70.273507C582.82558 417.333176 551.102065 448.800865 511.967766 448.800865z"  horiz-adv-x="1024" />

    
    <glyph glyph-name="gouwuche1" unicode="&#58891;" d="M347.136 112.63999999999999q19.456 0 36.864-7.168t30.72-19.968 20.48-30.208 7.168-36.864-7.168-36.864-20.48-30.208-30.72-20.48-36.864-7.68q-20.48 0-37.376 7.68t-30.208 20.48-20.48 30.208-7.168 36.864 7.168 36.864 20.48 30.208 30.208 19.968 37.376 7.168zM773.12 110.59199999999998q19.456 0 37.376-7.168t30.72-19.968 20.48-30.208 7.68-36.864-7.68-36.864-20.48-30.208-30.72-20.48-37.376-7.68-36.864 7.68-30.208 20.48-20.48 30.208-7.68 36.864 7.68 36.864 20.48 30.208 30.208 19.968 36.864 7.168zM945.152 692.2239999999999q28.672 0 44.544-7.68t22.528-18.944 6.144-24.064-3.584-22.016-12.8-37.888-22.016-62.976-24.064-68.096-17.92-53.248q-13.312-40.96-33.792-56.832t-50.176-15.872l-34.816 0-66.56 0-87.04 0-95.232 0-253.952 0 15.36-92.16 516.096 0q49.152 0 49.152-41.984 0-20.48-9.728-35.328t-38.4-14.848l-49.152 0-95.232 0-117.76 0-119.808 0-98.304 0-56.32 0q-20.48 0-34.304 9.216t-23.04 24.064-14.848 32.256-8.704 32.768q-1.024 6.144-5.632 29.696t-11.264 58.88-14.848 78.848-16.384 87.552q-19.456 103.424-44.032 230.4l-76.8 0q-15.36 0-25.6 7.68t-16.896 18.432-9.216 23.04-2.56 22.528q0 20.48 13.824 33.792t37.376 13.312l22.528 0 20.48 0 25.6 0 34.816 0q20.48 0 32.768-6.144t19.456-15.36 10.24-19.456 5.12-17.408q2.048-8.192 4.096-23.04t4.096-30.208q3.072-18.432 6.144-38.912l700.416 0z"  horiz-adv-x="1024" />

    
    <glyph glyph-name="suoyou" unicode="&#59157;" d="M748.155443 257.953204h503.041302c23.125941 0 41.876704-18.750763 41.876704-41.876703 0-23.125941-18.750763-41.876704-41.876704-41.876704H748.155443c-23.125941 0-41.876704 18.750763-41.876704 41.876704-0.104171 23.125941 18.750763 41.876704 41.876704 41.876703z m0 167.715158h503.041302c23.125941 0 41.876704-18.750763 41.876704-41.876704s-18.750763-41.876704-41.876704-41.876704H748.155443c-23.125941 0-41.876704 18.750763-41.876704 41.876704s18.750763 41.876704 41.876704 41.876704z m0 167.610987h503.041302c23.125941 0 41.876704-18.750763 41.876704-41.876704s-18.750763-41.876704-41.876704-41.876704H748.155443c-23.125941 0-41.876704 18.750763-41.876704 41.876704s18.750763 41.876704 41.876704 41.876704z"  horiz-adv-x="2000" />

    
    <glyph glyph-name="xiexin" unicode="&#59023;" d="M559.795332 403.748071H275.723074c-10.898936 0-19.698076-8.799141-19.698076-19.698076 0-10.898936 8.799141-19.698076 19.698076-19.698076h242.876282l41.195976 39.396152zM433.207695 187.169222l-19.698077-157.484621L570.994239 49.382677l19.698076 19.698077-137.786544 137.786544-19.698076-19.698076zM537.29753 83.079387l-84.391759-14.098623 14.098623 84.391758 70.293136-70.293135zM374.213456 226.565374l20.597988 19.698077H275.723074c-10.898936 0-19.698076-8.799141-19.698076-19.698077s8.799141-19.698076 19.698076-19.698076h98.490382v19.698076zM256.024998 68.980764c0-10.898936 8.799141-19.698076 19.698076-19.698077h98.490382v39.396153h-98.490382c-10.898936 0-19.698076-8.799141-19.698076-19.698076z m19.698076 610.440386h354.465384c10.898936 0 19.698076 8.799141 19.698077 19.698077 0 10.898936-8.799141 19.698076-19.698077 19.698076H275.723074c-10.898936 0-19.698076-8.799141-19.698076-19.698076 0-10.898936 8.799141-19.698076 19.698076-19.698077zM689.182697 896h-511.950005c-43.495752 0-78.792305-35.296553-78.792305-78.792305v-866.41539c0-43.495752 35.296553-78.792305 78.792305-78.792305h354.465384c10.898936 0 19.698076 8.799141 19.698077 19.698076s-8.799141 19.698076-19.698077 19.698077H196.930768c-32.596817 0-59.094229 26.397422-59.094229 59.094229V797.509618c0 32.596817 26.497412 59.094229 59.094229 59.094229h492.251929v-196.880773h196.880773v-98.490382l39.396153-39.396153V659.723074L689.182697 896z m39.396153-196.880773V797.509618l98.490382-98.490382h-98.490382z m157.48462-728.528855c0-32.596817-26.397422-59.094229-59.094229-59.094229h-58.994239c-10.898936 0-19.698076-8.799141-19.698076-19.698076s8.799141-19.698076 19.698076-19.698077h78.792306c43.495752 0 78.792305 35.296553 78.792305 78.792306V305.25769l-39.396152-39.396153v-295.271165zM275.723074 521.836539h407.86017l41.295967 39.396153H275.723074c-10.898936 0-19.698076-8.799141-19.698076-19.698076 0-10.798945 8.799141-19.698076 19.698076-19.698077z m413.459623-610.340396h-39.396153c-10.898936 0-19.698076-8.799141-19.698076-19.698076s8.799141-19.698076 19.698076-19.698077h39.396153c10.898936 0 19.698076 8.799141 19.698076 19.698077s-8.799141 19.698076-19.698076 19.698076z m141.686163 396.161312l69.593204 69.593204c23.097744 23.097744 23.097744 60.494092 0 83.491847l-55.694561 55.694561c-23.097744 23.097744-60.494092 23.097744-83.491846 0l-41.795919-41.795919-250.67552-250.475539L607.990626 84.879211l222.878234 222.778244zM608.090616 140.573772l-83.491846 83.591837L719.479738 419.046577l83.591837-83.591836-194.980959-194.880969z m139.186408 306.370081l41.795918 41.795919c7.699248 7.699248 20.198028 7.699248 27.797286 0l55.694561-55.694562c7.699248-7.699248 7.699248-20.198028 0-27.797285l-41.795919-41.795918-83.491846 83.491846z m0 0"  horiz-adv-x="1024" />

    
    <glyph glyph-name="tab_baozhang" unicode="&#58945;" d="M685.251 704.181v64.014H343.843v-64.014h-213.38v-704.153H898.63V704.181H685.251z m-298.732 21.338h256.056v-85.352H386.519v85.352z m469.435-682.815H173.14V661.505h170.704v-64.014h341.407v64.014h170.704v-618.801zM301.167 469.463h426.759v-42.676H301.167zM301.167 362.773h426.759v-42.676H301.167zM301.167 256.08299999999997h256.056v-42.676H301.167z"  horiz-adv-x="1024" />

    
    <glyph glyph-name="arrow-down" unicode="&#58887;" d="M848.45300001 600.6083333199999l58.261-56.285-392.021-393.996-392.021 393.996 58.261 56.285 333.761-331.786z"  horiz-adv-x="1024" />

    
    <glyph glyph-name="kefu" unicode="&#58939;" d="M516.086 125.119c4.378 0 8.834 0.27 13.319 0.804 43.013 5.161 79.537 35.227 93.018 76.657 1.019 3.1-0.45 6.42-3.418 7.781-2.934 1.366-6.483 0.186-8.144-2.596-0.156-0.265-17.246-27.867-83.777-36.853-9.959-1.337-19.65-2.037-28.836-2.037-46.612 0.03-67.384 17.599-67.574 17.761-2.345 2.086-5.925 2.14-8.33 0.107-2.428-2.032-2.988-5.563-1.332-8.266 20.292-32.894 56.704-53.358 95.074-53.358z m357.732 412.326c-0.588 0-1.121-0.107-1.68-0.107C833.156 706.105 684.204 832 505.617 832c-183.498 0-335.868-132.847-369.641-308.6-32.837-5.909-57.83-34.771-57.83-69.674v-139.698c0-39.153 31.397-70.903 70.165-70.903 21.868 0 41.17 10.327 54.011 26.188 31.025-82.059 94.187-148.223 174.121-183.131 0.19 0.416 1.703 3.358 3.525 5.704 1.258 1.626 2.668 2.958 3.879 2.958 1.253 0 2.404-0.456 3.388-1.151-18.5 13.774-85.324 84.576-99.799 183.376-6.35 43.487 26.222 86.177 64.157 93.238 60.899 11.341 121.481 24.258 182.381 35.383 38.714 7.062 65.17 28.299 81.349 63.657 3.79 8.266 9.265 24.978 11.776 49.08 0.666 3.584 3.604 6.335 7.37 6.335 2.512 0 4.646-1.282 6.062-3.129l1.68 1.043c24.004-34.85 71.604-112.011 78.44-193.374 7.85-93.022 3.472-156.733-67.731-221.913-0.083-0.083-0.19-0.186-0.294-0.27a5.83 5.83 0 0 1-1.576-3.985c0-2.003 1.067-3.717 2.614-4.76 0.588-0.24 1.176-0.563 1.764-0.803 0.479-0.108 0.935-0.265 1.415-0.265 0.484 0 0.91 0.156 1.337 0.265 1.013 0.533 1.973 1.15 2.962 1.685 72.006 39.668 127.245 105.915 152.771 185.594 10.332-15.352 26.511-26.398 45.305-30.252-30.146-137.098-152.42-222.903-303.909-235.927-9.078 22.52-31.427 38.512-57.672 38.512-34.277 0-62.071-27.146-62.071-60.605S463.354-64 497.637-64c27.636 0 50.782 17.755 58.818 42.15 175.354 14.255 315.924 118.485 345.27 280.434 25.923 10.836 44.129 36.27 44.129 65.958V465.895c0 39.505-32.255 71.55-72.036 71.55z m-64.69-40.603c-45.734 123.891-164.249 212.395-303.667 212.395-138.836 0-256.924-87.754-303.085-210.843-2.296 2.812-4.99 5.216-7.634 7.649 26.132 149.994 155.224 264.039 310.875 264.039 154.906 0 283.597-112.922 310.587-261.875-2.669-3.584-5.127-7.326-7.076-11.365z m-432.675-410.66h-0.01c-0.029-0.065-0.029-0.075 0.01 0z m0 0"  horiz-adv-x="1024" />

    
    <glyph glyph-name="pi" unicode="&#58903;" d="M90.24-64.533333c-13.546667 0-24.64 10.986667-24.64 24.64V805.76c0 13.546667 10.986667 24.64 24.64 24.64h845.76c13.546667 0 24.64-10.986667 24.64-24.64v-845.76c0-13.546667-10.986667-24.64-24.64-24.64H90.24zM416 152.426667c0-26.88-7.786667-46.4-23.146667-57.92l-0.426666-0.32 41.28-61.866667h0.32c2.026667 0 4.16 1.066667 6.186666 3.093333 11.626667 8.32 23.573333 16.96 32 23.253334 34.773333 21.226667 73.92 39.893333 116.48 55.36l0.426667 0.106666v0.426667c-3.84 34.56-5.866667 63.04-5.866667 84.48v0.853333l-0.746666-0.426666c-11.413333-5.76-28.586667-15.253333-52.48-29.226667-16.853333-11.2-29.333333-18.986667-37.12-22.933333V431.893333h90.453333V508.8h-90.453333V718.826667H416v-566.4z m-256.64-43.733334c1.92-19.306667 6.826667-44.8 14.613333-75.946666l0.106667-0.426667h0.426667c30.72 0 54.293333 0.96 70.08 2.88 23.786667 0 41.813333 6.186667 53.546666 18.346667 12.266667 12.693333 17.92 32.213333 16.96 58.026666v203.733334l64.213334 17.493333v0.426667c-1.92 23.146667-1.92 48.64 0 75.733333v0.746667l-64.213334-14.613334v130.133334h64.213334V596.266667h-64.213334V724.693333H241.066667v-128.32h-78.72v-71.04H241.066667v-150.72L153.493333 354.133333l5.866667-82.773333 81.6 23.36v-159.68c0.853333-8.426667-0.746667-14.72-4.586667-18.986667-4.16-4.586667-11.2-6.933333-21.013333-6.933333-1.92 0-3.84 0.106667-5.973333 0.213333h-50.24l0.213333-0.64z m452.053333 26.24c0-30.186667 6.72-53.12 20.053334-68.266666 13.333333-15.146667 33.493333-22.826667 60.16-22.826667 1.6 0 3.306667 0 5.013333 0.106667H752c54.4 0 87.04 22.72 96.746667 67.52 7.786667 29.226667 14.613333 72.426667 20.373333 128.426666v0.426667l-0.426667 0.106667c-17.28 3.84-40.853333 11.626667-69.866666 23.36l-0.64 0.213333-0.106667-0.746667c-3.946667-44.693333-8.853333-82.026667-14.613333-110.826666-1.92-26.88-15.466667-40.426667-40.32-40.426667h-26.24c-19.306667 0-28.586667 11.306667-28.586667 34.453333v230.4c63.893333 52.266667 122.666667 106.24 174.826667 160.32l0.32 0.32-53.226667 56.213334-0.426667-0.426667c-40.213333-44.053333-81.066667-84.053333-121.6-118.826667V724.693333h-76.906666v-589.76zM935.893333 829.866667c13.226667 0 24.106667-10.773333 24.106667-24.106667v-845.76c0-13.226667-10.773333-24.106667-24.106667-24.106667H90.24C76.906667-64 66.133333-53.226667 66.133333-39.893333V805.76C66.133333 819.093333 76.906667 829.866667 90.24 829.866667h845.653333M691.52 43.413333c1.6 0 3.306667 0 5.013333 0.106667h55.466667c27.306667 0 49.28 5.76 65.493333 16.96 16.213333 11.306667 26.88 28.48 31.786667 50.88 7.786667 29.333333 14.613333 72.533333 20.48 128.533333l0.106667 0.96-0.96 0.213334c-17.28 3.84-40.746667 11.626667-69.866667 23.253333l-1.386667 0.533333-0.106666-1.386666c-3.946667-44.693333-8.853333-81.92-14.613334-110.72v-0.213334c-0.96-13.333333-4.8-23.36-11.413333-29.973333-6.613333-6.506667-16.106667-9.92-28.373333-9.92h-26.24c-18.88 0-28.053333 11.093333-28.053334 33.92V376.533333c63.786667 52.266667 122.56 106.133333 174.72 160.213334l0.746667 0.746666-0.746667 0.746667-52.48 55.466667-0.746666 0.853333-0.746667-0.853333c-39.893333-43.733333-80.533333-83.413333-120.64-117.973334V725.333333h-77.973333v-590.186666c0-30.293333 6.826667-53.333333 20.16-68.586667 13.333333-15.466667 33.706667-23.146667 60.373333-23.146667M240.426667 596.906667h-78.72V524.8h78.72v-149.76l-86.72-20.266667-0.853334-0.213333 0.106667-0.96 5.866667-81.706667 0.106666-1.28 1.28 0.32 80.32 22.933334v-159.04c0.853333-8.213333-0.746667-14.4-4.48-18.56-4.053333-4.48-10.986667-6.72-20.586666-6.72-1.813333 0-3.84 0.106667-5.866667 0.213333h-50.773333l0.106666-1.173333c1.92-19.306667 6.826667-44.906667 14.613334-75.946667l0.213333-0.853333h0.853333c30.72 0 54.293333 0.96 70.08 2.88 24 0 42.133333 6.293333 53.866667 18.56 12.266667 12.8 18.026667 32.426667 17.066667 58.346666V314.986667l63.36 17.28 0.853333 0.213333-0.106667 0.853333c-1.92 23.146667-1.92 48.64 0 75.626667l0.106667 1.386667-1.386667-0.32-62.826666-14.293334V524.693333H379.733333v72.106667h-64.213333V725.226667h-75.093333v-128.32m193.066666-565.12h0.533334c2.133333 0 4.373333 1.066667 6.506666 3.2 11.626667 8.32 23.573333 16.96 32 23.253333 34.773333 21.226667 73.92 39.893333 116.48 55.253333l0.746667 0.32-0.106667 0.853334c-3.84 34.56-5.866667 62.933333-5.866666 84.48v1.706666l-1.493334-0.746666c-11.413333-5.76-28.586667-15.253333-52.586666-29.226667-16.213333-10.88-28.48-18.346667-36.266667-22.506667V431.36h90.453333v77.973333h-90.453333V719.36h-77.973333v-566.933333c0-26.773333-7.68-46.08-22.933334-57.493334l-0.853333-0.64 0.533333-0.853333 40.853334-61.226667 0.426666-0.426666M935.893333 830.933333H90.24C76.266667 830.933333 65.066667 819.733333 65.066667 805.76v-845.76c0-13.866667 11.2-25.173333 25.173333-25.173333h845.76c13.866667 0 25.173333 11.2 25.173333 25.173333V805.76C961.066667 819.733333 949.866667 830.933333 935.893333 830.933333zM691.52 44.48c-53.12 0-79.573333 30.186667-79.573333 90.453333V724.16h75.84v-250.88c40.853333 34.986667 81.706667 74.88 122.453333 119.573333l52.48-55.466666c-52.48-54.4-110.72-107.84-174.933333-160.32v-230.4c0-23.36 9.706667-34.986667 29.12-34.986667h26.24c25.28 0 38.826667 13.546667 40.853333 40.853333 5.866667 29.12 10.666667 66.133333 14.613333 110.826667 29.12-11.626667 52.48-19.413333 69.973334-23.36-5.866667-56.426667-12.693333-99.2-20.373334-128.32-9.706667-44.693333-41.813333-67.093333-96.213333-67.093333h-55.466667c-1.706667-0.106667-3.306667-0.106667-5.013333-0.106667zM162.773333 525.76v69.973333h78.72V724.16h72.96v-128.32H378.666667V525.866667h-64.213334v-131.2l64.213334 14.613333c-1.92-27.2-1.92-52.48 0-75.84l-64.213334-17.493333v-204.16c1.92-50.56-21.44-75.84-69.973333-75.84-15.573333-1.92-38.933333-2.88-69.973333-2.88-7.786667 31.146667-12.693333 56.426667-14.613334 75.84h49.6c2.133333-0.213333 4.053333-0.213333 5.973334-0.213334 19.2 0 27.84 8.853333 26.133333 26.56V295.36L159.893333 272l-5.866666 81.706667 87.466666 20.373333V525.76h-78.72z m271.253334-492.906667l-40.853334 61.226667c15.573333 11.626667 23.36 31.04 23.36 58.346667V718.293333h75.84v-210.026666h90.453334v-75.84h-90.453334v-285.866667c7.786667 3.84 20.373333 11.626667 37.866667 23.36 23.36 13.546667 40.853333 23.36 52.48 29.12 0-21.44 1.92-49.6 5.866667-84.586667-42.773333-15.573333-81.706667-34.026667-116.693334-55.466666-7.786667-5.866667-18.453333-13.546667-32.106666-23.36-1.92-1.706667-3.84-2.773333-5.76-2.773334z"  horiz-adv-x="1024" />

    
    <glyph glyph-name="qq" unicode="&#58933;" d="M512 896C230.4 896 0 667.2 0 384s228.8-512 512-512 512 228.8 512 512S795.2 896 512 896z m220.8-649.6c-16-14.4-36.8 44.8-40 36.8-8-22.4-11.2-36.8-33.6-60.8-1.6-1.6 25.6-11.2 33.6-30.4 6.4-19.2 20.8-49.6-70.4-59.2-54.4-6.4-92.8 28.8-96 27.2h-24c-1.6 0-19.2-27.2-99.2-27.2-62.4 0-78.4 38.4-65.6 59.2 12.8 20.8 33.6 27.2 30.4 30.4-16 16-25.6 33.6-32 49.6-1.6 3.2-3.2 8-3.2 11.2-1.6 8-19.2-49.6-38.4-36.8-19.2 12.8-17.6 48-4.8 80 12.8 33.6 43.2 65.6 43.2 72 1.6 25.6-3.2 30.4 0 36.8 6.4 16 12.8 9.6 12.8 17.6 0 100.8 75.2 182.4 169.6 182.4 92.8 0 169.6-81.6 169.6-182.4 0-3.2 9.6 0 14.4-17.6 1.6-3.2 1.6-17.6 0-36.8 0-9.6 25.6-20.8 40-72 12.8-49.6 0-73.6-6.4-80z"  horiz-adv-x="1024" />

    
    <glyph glyph-name="Ps" unicode="&#58935;" d="M35.05930717 63.28271689999997V718.1829471h247.03947414c43.47897214 0 76.68464894-2.08476076 99.62023203-6.25428756 32.16489722-5.36081491 59.11308493-15.56686121 80.85737733-30.60212572 21.73788665-15.0416677 39.23579319-36.1134544 52.49052345-63.21215586 13.24832451-27.10510727 19.8804933-56.88741776 19.88049332-89.34373253 0-55.69612702-17.7220778-102.82263142-53.15982492-141.38912572-35.44415295-38.56969589-99.47612403-57.84813677-192.09270918-57.8481368h-167.96903685v-266.25066601h-86.66652932z m86.66652932 343.53416324h169.31084138c55.98754458 0 95.74532969 10.42060747 119.27655945 31.2714272 23.52482399 20.84441655 35.29364179 50.17839255 35.2936392 88.00513223 0 27.39652479-6.92358635 50.85089558-20.77396341 70.35991082-13.84717278 19.50260942-32.09444405 32.38586159-54.72259641 38.64014645-14.59653477 3.86849922-41.54472514 5.80595043-80.85737467 5.80595045h-167.52390397v-234.08256715zM602.84787783 204.89600857000005l79.52197332 12.50856985c4.46734748-31.87027546 16.89265516-56.28856948 37.29514037-73.26128525 20.39607945-16.9759173 48.91664598-25.4622752 85.55209493-25.46227518 36.9204607 0 64.32979444 7.51603148 82.19917917 22.55769915 17.86938736 15.03526454 26.8008781 32.68048333 26.80087813 52.93565903 0 18.16080489-7.89391279 32.45951637-23.67533515 42.88652963-11.02585891 7.14775497-38.42238372 16.22655527-82.19918179 27.24921262-58.96897695 14.88795234-99.8444006 27.76480134-122.62946992 38.64014911-22.7786662 10.86894194-40.05560839 25.9106123-51.82122203 45.11859998-11.76561359 19.20799028-17.64521879 40.43028814-17.64521882 63.65729139 0 21.14223989 4.83562141 40.72170831 14.51647425 58.7448084 9.67444701 18.01349532 22.85552252 32.98150828 39.53682075 44.89763563 12.50856982 9.22611252 29.55494036 17.04637052 51.1519205 23.4543734 21.59057439 6.40159709 44.74712187 9.60399382 69.46323923 9.60399385 37.22788878 0 69.91477789-5.36081491 98.06066475-16.08244731 28.13948107-10.72163243 48.91024287-25.23810665 62.31548431-43.55583109 13.40524409-18.31452025 22.62815239-42.81607645 27.69434814-73.4854538l-78.62210275-10.72163243c-3.57707908 24.4150898-13.93043494 43.47897214-31.04725865 57.17883799-17.13283425 13.69345741-41.32375814 20.54979482-72.59198379 20.54979474-36.93326966 0-63.29221647-6.10697538-79.07043726-18.31772447-15.78782816-12.21395071-23.67533777-26.50946058-23.67533511-42.88652699 0-10.42701061 3.26964836-19.8100401 9.82495814-28.14268523 6.54890669-8.64327481 16.81900039-15.79102974 30.82309275-21.44326488 8.04442654-2.98143237 31.7165601-9.82816238 71.02921226-20.54979476 56.88101461-15.18897991 96.56514223-27.62709654 119.05239086-37.30154621 22.48404444-9.6808528 40.1292632-23.75219414 52.9388606-42.2172255 12.80319161-18.47143719 19.20799028-41.40061715 19.20799031-68.79714198 0-26.80407971-7.81705639-52.04218898-23.4543708-75.72072838-15.63091125-23.67533777-38.19181198-41.99305963-67.67630179-54.94996651-29.48448982-12.95370533-62.84067774-19.42895461-100.06856918-19.42895466-61.64618279 0-108.63178343 12.79998998-140.94399019 38.41598062-32.31220681 25.61919211-52.92605166 63.59324141-61.86394554 113.92534924z"  horiz-adv-x="1024" />

    
    <glyph glyph-name="wodehuoyuan" unicode="&#58892;" d="M945.751149 365.170383c11.031603 0 19.971631 8.941844 19.971631 19.971631v150.945589a88.310922 88.310922 0 0 1-14.212539 48.115291 19.859064 19.859064 0 0 1-1.873702 4.675177L862.701844 743.690894c-0.263262 0.468426-0.544681 0.925957-0.844255 1.37078-3.692936 5.488567-7.115348 10.88817-10.425192 16.109844-17.769305 28.036539-36.145021 57.029901-77.724142 57.0299H296.244652c-45.430014 0-65.367149-34.107915-84.648851-67.093787a1809.411631 1809.411631 0 0 0-3.881758-6.619688l-97.122043-147.430581a20.274837 20.274837 0 0 1-1.541447-2.857759c-13.517163-15.592397-21.723688-35.905362-21.723688-58.112V93.412766c0-48.994043 39.86156-88.853787 88.857419-88.853787h700.682893c48.995858 0 88.853787 39.859745 88.853788 88.853787v79.94644c0 11.029787-8.940028 19.971631-19.971632 19.971631-11.027972 0-19.971631-8.941844-19.971631-19.971631v-79.94644c0-26.968965-21.939745-48.910525-48.910525-48.910525H176.186099c-26.97078 0-48.914156 21.94156-48.914156 48.910525V536.087603c0 26.97078 21.943376 48.91234 48.914156 48.91234h700.682894c26.97078 0 48.910525-21.94156 48.910525-48.91234v-150.945589c0-11.029787 8.94366-19.971631 19.971631-19.971631zM241.342638 722.925844c0.179745 0.27234 0.352227 0.550128 0.519263 0.831546a1615.585135 1615.585135 0 0 1 4.219461 7.193419c18.675291 31.949163 28.608454 47.307348 50.16329 47.307347H506.553191v-153.313135H176.794326l64.548312 97.980823zM546.496454 624.943206V778.25634h227.213617c18.083404 0 25.560057-9.39756 43.98661-38.468992 3.322553-5.241645 6.754043-10.653957 10.568624-16.347688l55.473929-98.788766a89.505589 89.505589 0 0 1-6.868425 0.292312H546.496454zM224.01634 357.552113h247.826156v-39.943262H224.01634zM224.01634 208.659972h360.391717v-39.943263H224.01634z"  horiz-adv-x="1053" />

    
    <glyph glyph-name="xin" unicode="&#58625;" d="M745.68415373 777.08255694C646.75837689 777.08255694 560.28021438 720.74072378 515.07572033 638.19338682 470.52636389 720.74072378 383.39306376 777.08255694 283.81214934 777.08255694c-144.13027087 0-260.74476275-117.26962948-260.74476276-262.05503796 0-68.78944747 26.2055038-131.02751898 69.44458505-178.19742581l400.28907047-402.25448326C499.35241806-71.32062843000006 507.21406919-74.59631642 515.07572033-74.59631642c7.86165114 0 15.72330227 3.27568798 22.27467824 9.17192633l400.28907045 402.25448326C980.22341269 383.3448624 1006.42891649 446.2380715 1006.42891649 515.02751898 1006.42891649 659.8129274400001 889.8144246 777.08255694 745.68415373 777.08255694zM887.84901182 379.41403683L515.07572033 0.7445069899999908 142.30242883 379.41403683C108.89041151 414.79146696 88.58114605 462.61651139 88.58114605 515.02751898c0 108.75284075 87.78843771 196.54127846 195.2310033 196.54127845C370.94544944 711.56879744 446.28627286 653.9166891 472.49177666 574.6450401 479.04315261 557.61146264 496.07673007 545.16384834 515.07572033 545.16384834c19.65412785 0 36.03256773 11.7924767 43.23908126 28.82605417l0 0C583.86516779 653.9166891 658.5508536 711.56879744 745.68415373 711.56879744c108.09770315 0 195.23100328-87.78843771 195.23100328-196.54127846C941.57029458 462.61651139 921.26102915 414.79146696 887.84901182 379.41403683z"  horiz-adv-x="1024" />

    
    <glyph glyph-name="shangjia" unicode="&#58893;" d="M871.646 6.656c16.973 0 30.754 13.534 30.754 30.276v176.59c0 16.741-13.781 30.275-30.754 30.275s-30.754-13.534-30.754-30.276v-146.304H173.073V213.521c0 16.742-13.781 30.276-30.754 30.276-16.981 0-30.754-13.534-30.754-30.276v-176.58c0-16.717 13.781-30.276 30.754-30.276h729.327v-0.009zM639.642 495.104c12.057-11.955 31.616-11.955 43.673 0 12.058 11.904 12.058 31.25 0 43.179L531.32 719.676c-6.425 6.357-14.976 9.088-23.406 8.627-8.423 0.452-16.948-2.27-23.373-8.627L332.553 538.283c-12.058-11.93-12.058-31.284 0-43.179 12.057-11.955 31.616-11.955 43.673 0l101.427 121.054v-432.853c0-16.743 13.782-30.345 30.754-30.345 16.973 0 30.755 13.594 30.755 30.345v431.7l100.48-119.901z"  horiz-adv-x="1024" />

    
    <glyph glyph-name="shouye" unicode="&#59682;" d="M955.8 395.5l-34.5-40.9c-3.2-3.2-7-5.1-11.5-6.4h-1.9c-5.1 0-9 1.3-11.5 3.8L512 673 127.7 352c-4.5-3.2-9-4.5-13.4-3.8-5.1 0.6-9 2.6-11.5 6.4l-34.5 40.9c-3.2 3.8-4.5 8.3-3.8 12.8 0.6 5.1 2.6 9 5.8 12.1l399 332.5c11.5 9.6 26.2 14.7 42.2 14.7 16 0 30.1-5.1 42.2-14.7l136.2-113.2V748.5c0 5.1 1.9 9.6 5.1 12.8 3.2 3.2 7.7 5.1 12.8 5.1h106.8c5.1 0 9.6-1.9 12.8-5.1s5.1-7.7 5.1-12.8v-226.4l121.5-101c3.8-3.2 5.8-7 6.4-12.1-0.8-5.2-2.1-9.6-4.6-13.5z m-124.1-38.3v-266.6c0-9.6-3.8-17.9-10.9-24.9-7-7-15.3-10.9-24.9-10.9H583V268.3H441v-212.9H227.5c-9.6 0-17.9 3.8-24.9 10.9-7 7-10.2 15.3-10.2 24.9V361L512 623.8l319.1-263.4c0.6-0.7 0.6-1.3 0.6-3.2z"  horiz-adv-x="1024" />

    
    <glyph glyph-name="qian" unicode="&#58972;" d="M958.419587 207.955709c-6.406076 179.83063-171.966302 315.013161-251.295218 369.638775 31.75408 31.928047 67.652666 75.650027 72.96889 114.326967 3.730055 28.709659-2.097836 53.771129-17.427392 74.606226-15.72354 20.52298-34.711518 30.500495-58.048668 30.500495-30.781912 0-60.914006-20.221096-77.855314-35.591586-19.095428 37.157288-58.867336 76.177045-116.21502 76.177045-64.731045-0.900535-98.920662-50.189457-112.377515-75.946794-16.352891 14.347154-45.906801 35.463669-78.121381 35.463668-21.940299 0-41.306911-10.049148-57.629101-29.947894-16.690591-20.891381-22.840833-47.073402-17.841843-75.43001 5.275291-38.380173 41.373427-81.580253 73.408924-113.155249-79.605217-52.604527-245.124509-183.939319-252.395303-369.782042-3.428172-94.760805 18.634927-167.504562 65.585529-216.256233 56.186199-57.982152 131.493409-64.244961 161.267337-64.244961h439.015759c29.763694 0 105.070904 6.262809 161.390137 64.260311 46.940369 48.746555 68.998351 121.208894 65.570179 215.381282z m-251.673852 494.009773c-2.665787-19.468945-39.643991-61.75314-73.900125-92.616919l-239.895268 0.424684c-34.890601 30.572128-72.64654 72.98424-75.52211 93.445821-2.09272 11.983251 0.803318 15.657023 2.317853 17.575775 0.813551 1.007985 1.499186 1.755019 2.036436 2.287154 7.449878-1.775486 24.386069-12.438635 33.427233-22.252416 11.727417-13.825254 28.295208-21.433748 46.658951-21.433748a41.649728 41.649728 0 0 1 8.98488 0.977284l3.366772 0.583301c20.896497 4.257073 37.628022 18.660511 45.927267 39.531425l0.081867 0.19955c1.795953 4.379873 18.501894 42.795863 52.364043 43.241014 30.623295 0 47.73857-34.675701 50.931375-41.818578 6.186059-19.919213 22.216599-34.962235 43.005646-40.350093 7.142877-2.363903 13.282886-2.363903 15.92309-2.363903 16.352891 0 32.542048 7.178694 45.809584 20.456463 9.27653 10.105431 25.992705 21.106281 34.614301 23.152951 0.173967-0.209784 0.363284-0.440034 0.562834-0.706101 2.38437-3.172338 4.901774-8.345296 3.305371-20.333664z m-317.704532-166.13841l247.263279-0.496317c44.550882-27.517474 242.080088-159.051816 248.10753-330.092 2.635087-73.408924-12.489802-127.717304-44.924399-161.395253-36.527937-37.653605-87.791895-41.721361-108.140908-41.721361h-438.90831c-20.379713 0-71.715305 4.067756-108.120442 41.706011-32.455064 33.693299-47.56972 88.252396-44.939749 162.137171 6.871693 174.831639 190.432379 295.457233 249.662999 329.861749zM625.436666 235.401549h-76.535212v17.754859h76.535212c20.349013 0 36.896337 16.547324 36.896338 36.896338s-16.547324 36.901454-36.896338 36.901454h-33.483516l45.390017 41.721361a44.356448 44.356448 0 0 1 14.429021 31.094029 44.131315 44.131315 0 0 1-11.799051 31.96898 44.719732 44.719732 0 0 1-32.859281 14.439254 44.284815 44.284815 0 0 1-30.183261-11.834867L510.797582 373.618268 444.690151 434.317374a44.300165 44.300165 0 0 1-30.208844 11.86045 44.699265 44.699265 0 0 1-32.828581-14.408554 44.162015 44.162015 0 0 1-11.829751-31.99968 44.376915 44.376915 0 0 1 14.429021-31.083796l45.390017-41.726478h-31.078679c-20.349013 0-36.901454-16.552441-36.901454-36.901454s16.552441-36.896337 36.901454-36.896337h76.530095v-17.754859H398.568451c-20.349013 0-36.901454-16.547324-36.901455-36.896338s16.552441-36.901454 36.901455-36.901454h76.530095v-74.350392c0-20.349013 16.552441-36.896337 36.901454-36.896337s36.901454 16.547324 36.901454 36.896337v74.345276h76.535212c20.349013 0 36.896337 16.552441 36.896338 36.901454s-16.547324 36.896337-36.896338 36.896337z"  horiz-adv-x="1024" />

    
    <glyph glyph-name="gaogenxie" unicode="&#58884;" d="M326.9 369.4H184.3c-9 0-17.4 4.9-21.8 12.7l-22.6 40.2c-1.7 3-3.3 6.1-4.8 9.2-42.8 87.6-6.4 193.3 81.2 236.1 9.2 4.5 20.2 2.9 27.8-3.9l336.5-304.9c32.7-29.7 75.5-45.8 119.7-45.3l47.5 0.6c4.2 0.1 8.3-1 12-2.9l119.9-63.6c0.3-0.2 1.3-0.8 3-1.8 1.9-1.2 3.7-2.5 5.4-3.9 21.4-17.7 24.4-49.4 6.8-70.8-2.2-2.7-4.9-4.8-8-6.4l-54.2-27.4c-52.5-26.5-110.5-40.4-169.3-40.4h-50.1c-37 0-72.1 16.4-95.9 44.8L326.9 369.4z m-146.9 84c1.1-2.2 2.2-4.4 3.5-6.6l15.5-27.4h139.7c7.4 0 14.4-3.3 19.2-9l197.9-236.7c14.2-17 35.3-26.9 57.5-26.9h50.1c51 0 101.2 12 146.7 35l44.4 22.4L742 263.9l-41.1-0.5c-56.8-0.7-111.8 20.1-153.9 58.2L223.8 614.4c-52.2-34.5-72-103.2-43.8-161z m676.2-250.1l1.4 2.6-2.7-1.3-0.3-0.4 0.7-0.5 0.9-0.4zM244.9 388.6c1.3 13.7 13.4 23.9 27.2 22.6s23.9-13.4 22.6-27.2l-23-249.4c-1.2-12.9-12-22.7-24.9-22.7h-32.3c-12.9 0-23.7 9.8-24.9 22.7l-23 249.4c-1.3 13.7 8.8 25.9 22.6 27.2 13.7 1.3 25.9-8.8 27.2-22.6l14.3-154.5 14.2 154.5z"  horiz-adv-x="1024" />

    
    <glyph glyph-name="shang" unicode="&#58626;" d="M512.133 496.483l-292.16-292.155c-12.27-12.28-32.186-12.28-44.457 0-12.28099999 12.27-12.281 32.186 0 44.457l314.388 314.388c12.27 12.28 32.186 12.28 44.457 0l314.387-314.388c6.14-6.136 9.211-14.183 9.211-22.228s-3.071-16.092-9.211-22.228c-12.27-12.28-32.186-12.28-44.457 0l-292.159 292.155z"  horiz-adv-x="1024" />

    
    <glyph glyph-name="weibiaoti2fuzhi14-copy" unicode="&#58645;" d="M736 0c0-19.2-12.8-32-32-32L320-32c-19.2 0-32 12.8-32 32l-64 512c0 19.2 12.8 32 32 32l512 0c19.2 0 32-12.8 32-32L736 0zM768 576L256 576C217.6 576 192 550.4 192 512l64-512c0-38.4 25.6-64 64-64l384 0c38.4 0 64 25.6 64 64l64 512C832 550.4 806.4 576 768 576zM851.2 640L179.2 640C166.4 640 160 633.6 160 620.8c0-6.4 6.4-12.8 19.2-12.8l672 0c6.4 0 12.8 6.4 12.8 12.8C864 633.6 857.6 640 851.2 640zM204.8 672l608 0c6.4 0 12.8 6.4 12.8 19.2C832 697.6 825.6 704 819.2 704L704 704 704 819.2C704 825.6 697.6 832 691.2 832c-6.4 0-19.2-6.4-19.2-19.2L672 704 211.2 704C198.4 704 192 697.6 192 691.2 192 678.4 198.4 672 204.8 672z"  horiz-adv-x="1024" />

    
    <glyph glyph-name="weixin" unicode="&#59057;" d="M512 896c-276.39395 0-500.813445-224.419496-500.813445-500.813445s224.419496-500.813445 500.813445-500.813446 500.813445 224.419496 500.813445 500.813446-224.419496 500.813445-500.813445 500.813445zM512 896c-276.39395 0-500.813445-224.419496-500.813445-500.813445s224.419496-500.813445 500.813445-500.813446 500.813445 224.419496 500.813445 500.813446-224.419496 500.813445-500.813445 500.813445z m-92.07395-632.986891c-24.094118 0-48.016134 4.13042-70.217142 9.981849-1.893109 0-4.13042 1.893109-4.130421 1.893109L291.538824 242.877311c-13.940168-8.088739-24.094118-1.893109-19.963698 13.940168 0 0 13.940168 58.170084 12.047059 58.170084C231.47563 349.063529 207.553613 393.121345 207.553613 453.184538 211.684034 555.412437 299.627563 635.611429 419.92605 635.611429c110.316639 0 200.325378-67.979832 216.330757-158.332774h-9.981849c-110.316639 0-200.325378-76.240672-200.325378-170.207731 0-16.005378 1.893109-30.117647 6.023529-44.057815h-12.047059z m322.516975-78.305882l16.005378-32.182857c8.088739-13.940168 1.893109-19.963697-12.047058-12.047059 0 0-39.927395 24.094118-41.992606 22.028907-18.070588-6.023529-58.170084-12.047059-78.133781-12.047058-102.227899 0-186.38521 70.217143-186.38521 156.267563S524.047059 463.166387 626.102857 463.166387 812.488067 392.949244 812.488067 306.898824c0-50.081345-25.987227-91.901849-70.045042-122.191597zM313.739832 517.378151c0-9.981849 5.335126-19.275294 13.940168-24.266218s19.275294-4.990924 28.052437 0c8.605042 4.990924 13.940168 14.28437 13.940168 24.266218s-5.335126 19.275294-13.940168 24.266219-19.275294 4.990924-28.052437 0c-8.605042-4.990924-13.940168-14.28437-13.940168-24.266219z m356.592941-150.244033c0-13.251765 10.842353-24.094118 24.094118-24.094118s24.094118 10.842353 24.094117 24.094118-10.842353 24.094118-24.094117 24.094117-24.094118-10.842353-24.094118-24.094117z m-132.345546 0c0-13.251765 10.842353-24.094118 24.094118-24.094118s24.094118 10.842353 24.094117 24.094118-10.842353 24.094118-24.094117 24.094117-24.094118-10.842353-24.094118-24.094117zM482.054454 517.378151c0-15.489076 12.563361-28.052437 28.052437-28.052437s28.052437 12.563361 28.052437 28.052437c0 9.981849-5.335126 19.275294-13.940168 24.266219s-19.275294 4.990924-28.052437 0c-8.949244-4.990924-14.112269-14.28437-14.112269-24.266219z"  horiz-adv-x="1024" />

    
    <glyph glyph-name="up-arrow" unicode="&#58627;" d="M798.74987544 499.86058098L549.07538562 749.53507079a17.51360662 17.51360662 0 0 1-5.47914927 3.68555225c-0.06364385 0.02892875-0.12150204 0.06942944-0.1909315 0.09835891a17.43260598 17.43260598 0 0 1-2.81768248 0.87365537c-0.17357394 0.04050069-0.33557597 0.11571574-0.51493626 0.1504308-1.15715945 0.23143218-2.33167643 0.35293352-3.50040709 0.35293352L501.23841782 754.69600164a17.5830368 17.5830368 0 0 1-14.24463173-7.30746139L239.4542556 499.86058098a17.6466799 17.6466799 0 0 1 1e-8-24.96571322l24.96571322-24.97149883a17.65825183 17.65825183 0 0 1 24.96571324 0l194.19448391 194.20026951L483.58016598 30.869677610000053a17.65246624 17.65246624 0 0 1 17.65825184-17.65825183l35.31071806 0a17.65246624 17.65246624 0 0 1 17.65246622 17.65825183L554.20160211 644.53443019l194.61106126-194.61106126a17.65825183 17.65825183 0 0 1 24.96571323 0l24.96571323 24.97149883a17.6466799 17.6466799 0 0 1 0.00578561 24.96571322z"  horiz-adv-x="1024" />

    
    <glyph glyph-name="QQ" unicode="&#58885;" d="M549.7 63.18a61.195 114.231 82.733 1 1 226.627-28.9 61.195 114.231 82.733 1 1-226.627 28.9zM301.216 36.547c5.44-33.997 61.196-54.396 126.47-47.596 65.275 6.8 112.872 39.437 108.792 73.434-5.44 33.997-61.195 54.396-126.47 47.596-65.275-6.8-112.871-39.437-108.792-73.434zM316.175 471.713a227.102 225.742 0 1 1 454.205 0 227.102 225.742 0 1 1-454.205 0zM299.857 43.347c5.44-33.998 61.195-54.396 126.47-47.597 65.275 6.8 112.87 39.437 108.791 73.435-5.44 33.997-61.195 54.395-126.47 47.596-65.275-6.8-114.231-39.437-108.791-73.434zM552.428 71.321a61.195 114.231 82.733 1 1 226.627-28.899 61.195 114.231 82.733 1 1-226.627 28.9zM318.895 221.493a220.303 183.586 0 1 1 440.606 0 220.303 183.586 0 1 1-440.606 0zM355.612 258.21c-32.637-63.915-82.953-104.712-97.912-96.553-20.399 10.88-24.478 76.154 8.16 140.07 32.637 63.914 84.313 106.071 108.79 92.472 25.839-12.239 13.6-72.074-19.038-135.99z m371.251-8.16c29.918-58.475 72.075-103.351 89.753-99.272 14.959 2.72 24.478 72.075-1.36 137.35-27.198 66.634-77.514 114.23-101.992 101.992-24.478-13.6-19.038-76.155 13.6-140.07zM378.73 337.084c-13.599-27.198-21.758-59.836-21.758-92.473 0-111.511 82.954-201.264 186.306-201.264S730.943 133.1 730.943 243.25c0 32.637-6.8 63.915-20.399 91.113-95.192-47.596-269.258-12.24-331.814 2.72zM438.566 524.749a54.396 44.876 90 1 1 89.753 0 54.396 44.876 90 1 1-89.753 0zM566.396 523.39a54.396 44.876 90 1 1 89.753 0 54.396 44.876 90 1 1-89.753 0zM551.437 454.035c-62.555 0-115.591-14.96-146.869-36.718 8.16-17.678 29.918-31.277 53.036-44.876 27.198-14.959 70.715-25.838 93.833-25.838 20.398 0 72.074 13.599 99.272 31.277 19.039 12.24 39.437 23.119 47.596 39.437-31.277 23.119-85.673 36.718-146.868 36.718zM465.764 523.39a33.997 27.198 90 1 1 54.395 0 33.997 27.198 90 1 1-54.395 0zM486.162 531.548a13.599 12.239 90 1 1 24.478 0 13.599 12.239 90 1 1-24.478 0zM589.514 515.23c-2.72 0-5.44 1.36-5.44 4.08v5.439c0 14.959 10.88 25.838 23.119 25.838s23.118-12.24 23.118-25.838v-4.08c0-2.72-2.72-5.44-6.8-4.08-2.72 0-5.44 2.72-5.44 6.8v2.72c0 8.16-5.439 14.959-12.238 14.959s-12.24-6.8-12.24-14.96v-2.719c1.36-5.44 0-8.16-4.08-8.16zM426.327 426.837s33.997-29.918 65.275-38.077c36.717-10.88 89.753-5.44 110.151 1.36 36.717 12.239 76.154 39.436 76.154 39.436s-33.997-25.838-69.355-48.956c-17.678-12.239-38.077-28.558-78.873-19.038-10.88 2.72-28.558 14.959-35.358 17.678-29.917 17.679-61.195 40.797-67.994 47.597zM464.404 270.449v-99.272s-40.797-19.039-77.514 16.318c-13.6 13.6 8.16 108.792 8.16 108.792l69.354-25.838zM388.25 290.847l74.794-59.835s1.36 38.077 0 48.956c-1.36 10.88-74.794 17.679-74.794 17.679M551.437 254.13c-95.193 0-183.586 33.997-254.3 95.193-1.36 1.36-1.36 6.8-1.36 6.8s2.72 10.878 6.8 35.356c2.72 17.679 10.879 39.437 13.598 39.437 2.72-1.36 5.44-4.08 8.16-6.8 5.44-5.439 9.519-9.518 12.239-10.878 58.475-54.396 134.63-84.314 214.863-84.314s156.388 29.918 214.863 84.314c0 0 13.6-16.319 19.039-32.638 5.44-17.678 12.239-36.717 6.8-42.156-69.355-55.756-153.669-84.314-240.702-84.314z"  horiz-adv-x="1024" />

    
    <glyph glyph-name="zuo" unicode="&#58948;" d="M238.2 384.4c-0.1 28.2 11.1 55.2 30.9 75.2L681.4 871.8c23.8 23.8 62.3 23.8 86.1 0 23.8-23.8 23.8-62.3 0-86.1L366.2 384.3l401.3-401.4c23.8-23.8 23.8-62.3 0-86.1-23.8-23.8-62.3-23.8-86.1 0L269.2 309c-19.9 20-31.1 47.2-31 75.4z m0 0"  horiz-adv-x="1024" />

    
    <glyph glyph-name="shijian" unicode="&#59169;" d="M735.744 352.768l-2.048-3.584c0 0.512 0.512 0.512 1.024 1.024l0.512 0.512 0.512 2.048zM512-3.584c-213.504 0-387.584 173.568-387.584 387.584s173.568 387.584 387.584 387.584 387.584-173.568 387.584-387.584-174.08-387.584-387.584-387.584m0 836.096c-247.296 0-448.512-201.216-448.512-448.512s201.216-448.512 448.512-448.512 448.512 201.216 448.512 448.512-201.216 448.512-448.512 448.512M528.896 380.928v217.088c0 20.48-11.776 37.376-32.256 37.376s-32.256-16.896-32.256-37.376v-232.448c0-9.728 4.096-19.456 10.752-26.624l125.44-125.44c14.336-14.848 37.888-19.968 52.736-5.12 14.848 14.848 9.728 38.4-5.12 52.736l-119.296 119.808z"  horiz-adv-x="1024" />

    


  </font>
</defs>
</svg>
